<svg data-v-fde0c5aa="" xmlns="http://www.w3.org/2000/svg" viewBox="0 0 300 300" class="font"><!----><defs data-v-fde0c5aa=""><linearGradient data-v-fde0c5aa="" gradientTransform="rotate(25)" id="c55bf118-d8a0-402a-9115-fd13ad405e7e" x1="0%" y1="0%" x2="100%" y2="0%"><stop data-v-fde0c5aa="" offset="0%" stop-color="#70243D" stop-opacity="1"></stop><stop data-v-fde0c5aa="" offset="100%" stop-color="#C15767" stop-opacity="1"></stop></linearGradient></defs><rect data-v-fde0c5aa="" fill="url(#c55bf118-d8a0-402a-9115-fd13ad405e7e)" x="0" y="0" width="300px" height="300px" class="logo-background-square"></rect><defs data-v-fde0c5aa=""><!----></defs><g data-v-fde0c5aa="" id="acd78af9-ddc6-434b-915a-3aae98012518" fill="#ffffff" transform="matrix(10.041077203658,0,0,10.041077203658,33.07165615492093,65.85577188423586)"><path d="M6.44 6.90C6.68 6.96 6.83 6.99 7.06 6.99C7.66 6.99 7.90 6.65 7.90 6.15C7.90 4.73 6.61 3.42 4.52 3.42C2.46 3.42 0.69 4.94 0.69 8.43C0.69 10.91 1.65 13.34 4.33 13.34C5.77 13.34 7.06 12.71 7.83 11.94C7.73 11.59 7.41 11.19 7.08 10.98C6.27 11.65 5.45 12.04 4.58 12.04C3.12 12.04 2.25 10.74 2.25 8.43C2.25 5.95 3.02 4.62 4.49 4.62C6.01 4.62 6.47 5.84 6.44 6.90ZM12.07 3.91C10.33 3.91 9.09 5.19 9.09 7.11C9.09 9.18 10.11 10.15 11.63 10.15C12.42 10.15 13.13 9.83 13.65 9.37C13.59 10.96 12.98 12.18 11.48 12.18C10.88 12.18 10.42 12.03 10.07 11.87C9.76 12.08 9.58 12.53 9.55 12.89C10.04 13.17 10.77 13.34 11.56 13.34C13.93 13.34 15.18 11.52 15.18 8.67C15.18 5.89 14.45 5.12 14.20 4.80C13.93 4.49 13.30 3.91 12.07 3.91ZM12.00 8.93C11.17 8.93 10.57 8.46 10.57 7.01C10.57 5.82 11.07 5.03 12.05 5.03C12.52 5.03 12.85 5.25 13.09 5.54C13.52 6.10 13.65 7.15 13.65 7.92L13.65 8.16C13.17 8.64 12.56 8.93 12.00 8.93ZM19.49 3.91C17.75 3.91 16.51 5.19 16.51 7.11C16.51 9.18 17.53 10.15 19.05 10.15C19.84 10.15 20.55 9.83 21.07 9.37C21.01 10.96 20.40 12.18 18.90 12.18C18.30 12.18 17.84 12.03 17.49 11.87C17.18 12.08 17.00 12.53 16.97 12.89C17.46 13.17 18.19 13.34 18.98 13.34C21.35 13.34 22.60 11.52 22.60 8.67C22.60 5.89 21.87 5.12 21.62 4.80C21.35 4.49 20.72 3.91 19.49 3.91ZM19.42 8.93C18.59 8.93 17.99 8.46 17.99 7.01C17.99 5.82 18.49 5.03 19.47 5.03C19.94 5.03 20.27 5.25 20.51 5.54C20.94 6.10 21.07 7.15 21.07 7.92L21.07 8.16C20.59 8.64 19.98 8.93 19.42 8.93Z"></path></g><!----><!----></svg>