<svg width="270" height="90" xmlns="http://www.w3.org/2000/svg" class="iconLeftSlogan">
 <!---->

 <defs>
  <!---->
 </defs>
 <defs>
  <!---->
 </defs>
 <defs>
  <!---->
 </defs>
 <g>
  <title>Layer 1</title>
  <g transform="matrix(5.37053 0 0 5.37053 138.626 94.995)" fill="#ffffff" id="002411c9-03b9-4178-ba2e-e79a07941f24">
   <path id="svg_2" d="m-5.77134,-11.46032c0.24,0.06 0.39,0.09 0.62,0.09c0.6,0 0.84,-0.34 0.84,-0.84c0,-1.42 -1.29,-2.73 -3.38,-2.73c-2.06,0 -3.83,1.52 -3.83,5.01c0,2.48 0.96,4.91 3.64,4.91c1.44,0 2.73,-0.63 3.5,-1.4c-0.1,-0.35 -0.42,-0.75 -0.75,-0.96c-0.81,0.67 -1.63,1.06 -2.5,1.06c-1.46,0 -2.33,-1.3 -2.33,-3.61c0,-2.48 0.77,-3.81 2.24,-3.81c1.52,0 1.98,1.22 1.95,2.28zm5.63,-2.99c-1.74,0 -2.98,1.28 -2.98,3.2c0,2.07 1.02,3.04 2.54,3.04c0.79,0 1.5,-0.32 2.02,-0.78c-0.06,1.59 -0.67,2.81 -2.17,2.81c-0.6,0 -1.06,-0.15 -1.41,-0.31c-0.31,0.21 -0.49,0.66 -0.52,1.02c0.49,0.28 1.22,0.45 2.01,0.45c2.37,0 3.62,-1.82 3.62,-4.67c0,-2.78 -0.73,-3.55 -0.98,-3.87c-0.27,-0.31 -0.9,-0.89 -2.13,-0.89zm-0.07,5.02c-0.83,0 -1.43,-0.47 -1.43,-1.92c0,-1.19 0.5,-1.98 1.48,-1.98c0.47,0 0.8,0.22 1.04,0.51c0.43,0.56 0.56,1.61 0.56,2.38l0,0.24c-0.48,0.48 -1.09,0.77 -1.65,0.77zm7.49,-5.02c-1.74,0 -2.98,1.28 -2.98,3.2c0,2.07 1.02,3.04 2.54,3.04c0.79,0 1.5,-0.32 2.02,-0.78c-0.06,1.59 -0.67,2.81 -2.17,2.81c-0.6,0 -1.06,-0.15 -1.41,-0.31c-0.31,0.21 -0.49,0.66 -0.52,1.02c0.49,0.28 1.22,0.45 2.01,0.45c2.37,0 3.62,-1.82 3.62,-4.67c0,-2.78 -0.73,-3.55 -0.98,-3.87c-0.27,-0.31 -0.9,-0.89 -2.13,-0.89zm-0.07,5.02c-0.83,0 -1.43,-0.47 -1.43,-1.92c0,-1.19 0.5,-1.98 1.48,-1.98c0.47,0 0.8,0.22 1.04,0.51c0.43,0.56 0.56,1.61 0.56,2.38l0,0.24c-0.48,0.48 -1.09,0.77 -1.65,0.77z"/>
  </g>
  <g transform="matrix(0.323094 0 0 0.655073 8.61863 95.7685)" fill="#ffffff" id="ed8c0985-aa02-4a57-9e4e-7ba34a6b6802">
   <path id="svg_6" d="m-10.84582,-25.03354l0,0l0,0q-0.56,0 -0.86,-0.31l0,0l0,0q-0.31,-0.32 -0.31,-0.77l0,0l0,0q0,-0.11 0.04,-0.26l0,0l0,0q0.03,-0.16 0.09,-0.27l0,0l0,0q0.18,0.09 0.54,0.12l0,0l0,0q0.36,0.04 0.83,0.04l0,0l0,0q0.72,0 1.62,-0.07l0,0l0,0q0.9,-0.06 1.73,-0.13l0,0l0,0q0.82,-0.07 1.45,-0.13l0,0l0,0q0.63,-0.07 0.82,-0.07l0,0l0,0q0.51,0 0.74,0.39l0,0l0,0q0.24,0.38 0.35,1.03l0,0l0,0q-0.37,-0.03 -0.72,-0.05l0,0l0,0q-0.36,-0.02 -0.61,-0.02l0,0l0,0q-0.45,0 -0.9,0.03l0,0l0,0q-0.46,0.02 -0.92,0.08l0,0l0,0q-0.2,0.41 -0.44,0.96l0,0l0,0q-0.23,0.55 -0.47,1.15l0,0l0,0q-0.23,0.61 -0.44,1.2l0,0l0,0q-0.21,0.6 -0.36,1.07l0,0l0,0q-0.31,0.93 -0.54,1.71l0,0l0,0q-0.23,0.78 -0.41,1.46l0,0l0,0q-0.17,0.68 -0.3,1.3l0,0l0,0q-0.12,0.61 -0.22,1.2l0,0l0,0q-0.94,-0.14 -1.57,-1.17l0,0l0,0q0.11,-0.44 0.27,-0.95l0,0l0,0q0.17,-0.51 0.38,-1.16l0,0l0,0q0.22,-0.65 0.51,-1.48l0,0l0,0q0.3,-0.82 0.68,-1.87l0,0l0,0q0.14,-0.4 0.29,-0.82l0,0l0,0q0.15,-0.43 0.3,-0.85l0,0l0,0q0.15,-0.42 0.27,-0.81l0,0l0,0q0.12,-0.39 0.2,-0.72l0,0l0,0q-0.59,0.07 -1.11,0.12l0,0l0,0q-0.53,0.05 -0.93,0.05zm21.98,0.77l0,0l0,0q0,0.67 -0.3,1.27l0,0l0,0q-0.31,0.59 -0.84,1.06l0,0l0,0q-0.53,0.47 -1.24,0.79l0,0l0,0q-0.72,0.33 -1.56,0.44l0,0l0,0q0.21,0.63 0.51,1.29l0,0l0,0q0.3,0.67 0.65,1.28l0,0l0,0q0.35,0.62 0.73,1.14l0,0l0,0q0.38,0.52 0.74,0.85l0,0l0,0q-0.07,0.14 -0.2,0.28l0,0l0,0q-0.13,0.14 -0.31,0.26l0,0l0,0q-0.17,0.12 -0.36,0.2l0,0l0,0q-0.19,0.07 -0.36,0.07l0,0l0,0q-0.31,0 -0.59,-0.29l0,0l0,0q-0.28,-0.29 -0.56,-0.93l0,0l0,0q-0.29,-0.64 -0.6,-1.65l0,0l0,0q-0.32,-1.02 -0.7,-2.45l0,0l0,0q-0.15,0 -0.31,0l0,0l0,0q-0.15,0 -0.23,-0.02l0,0l0,0q-0.1,-0.06 -0.21,-0.2l0,0l0,0q-0.38,0.81 -0.68,1.53l0,0l0,0q-0.29,0.71 -0.52,1.38l0,0l0,0q-0.23,0.66 -0.41,1.28l0,0l0,0q-0.17,0.63 -0.3,1.27l0,0l0,0q-0.47,-0.11 -0.82,-0.41l0,0l0,0q-0.35,-0.29 -0.66,-0.82l0,0l0,0q0.05,-0.13 0.12,-0.25l0,0l0,0q0.06,-0.12 0.16,-0.33l0,0l0,0q0.1,-0.22 0.24,-0.56l0,0l0,0q0.15,-0.33 0.39,-0.89l0,0l0,0q0.25,-0.56 0.59,-1.37l0,0l0,0q0.35,-0.82 0.84,-1.98l0,0l0,0q0.22,-0.52 0.38,-0.91l0,0l0,0q0.16,-0.39 0.29,-0.75l0,0l0,0q0.12,-0.35 0.23,-0.71l0,0l0,0q0.1,-0.36 0.22,-0.82l0,0l0,0q-0.65,0.22 -1.2,0.5l0,0l0,0q-0.55,0.27 -0.92,0.58l0,0l0,0q-0.12,-0.09 -0.26,-0.25l0,0l0,0q-0.13,-0.17 -0.24,-0.38l0,0l0,0q-0.11,-0.2 -0.2,-0.41l0,0l0,0q-0.08,-0.21 -0.1,-0.38l0,0l0,0q0.42,-0.28 1.03,-0.51l0,0l0,0q0.61,-0.24 1.3,-0.42l0,0l0,0q0.68,-0.17 1.4,-0.27l0,0l0,0q0.71,-0.1 1.33,-0.1l0,0l0,0q1.68,0 2.6,0.69l0,0l0,0q0.93,0.7 0.93,1.9zm-3.59,-1.44l0.17,0.27l0,0q-0.1,0.12 -0.31,0.5l0,0l0,0q-0.21,0.38 -0.48,0.9l0,0l0,0q-0.27,0.53 -0.58,1.14l0,0l0,0q-0.3,0.62 -0.58,1.22l0,0l0,0q1.05,0 1.94,-0.19l0,0l0,0q0.88,-0.2 1.52,-0.56l0,0l0,0q0.65,-0.35 1,-0.84l0,0l0,0q0.36,-0.48 0.36,-1.07l0,0l0,0q0,-0.7 -0.5,-1.07l0,0l0,0q-0.51,-0.37 -1.56,-0.37l0,0l0,0q-0.24,0 -0.47,0.02l0,0l0,0q-0.24,0.02 -0.51,0.05l0,0zm15.16,4.33l0,0l0,0q1.05,-1.15 1.89,-2.44l0,0l0,0q0.83,-1.29 1.54,-2.9l0,0l0,0q0.37,0.04 0.7,0.2l0,0l0,0q0.34,0.15 0.54,0.35l0,0l0,0q-0.77,0.92 -1.4,1.68l0,0l0,0q-0.62,0.75 -1.14,1.42l0,0l0,0q-0.52,0.66 -0.96,1.27l0,0l0,0q-0.44,0.61 -0.86,1.23l0,0l0,0q-0.21,0.71 -0.39,1.44l0,0l0,0q-0.18,0.73 -0.32,1.39l0,0l0,0q-0.14,0.67 -0.22,1.23l0,0l0,0q-0.08,0.57 -0.08,0.98l0,0l0,0q-0.15,0 -0.49,-0.06l0,0l0,0q-0.33,-0.07 -0.68,-0.15l0,0l0,0q-0.35,-0.09 -0.64,-0.17l0,0l0,0q-0.29,-0.08 -0.34,-0.14l0,0l0,0q0.22,-0.38 0.44,-0.93l0,0l0,0q0.22,-0.55 0.43,-1.16l0,0l0,0q0.21,-0.61 0.4,-1.23l0,0l0,0q0.2,-0.63 0.37,-1.16l0,0l0,0q-0.35,-1.09 -0.68,-2.05l0,0l0,0q-0.33,-0.96 -0.64,-1.74l0,0l0,0q-0.31,-0.77 -0.59,-1.33l0,0l0,0q-0.28,-0.56 -0.53,-0.86l0,0l0,0q0.14,-0.05 0.43,-0.11l0,0l0,0q0.28,-0.06 0.63,-0.11l0,0l0,0q0.34,-0.06 0.7,-0.09l0,0l0,0q0.35,-0.04 0.63,-0.05l0,0l0,0q0,0.35 0.07,0.85l0,0l0,0q0.06,0.51 0.16,1.08l0,0l0,0q0.11,0.57 0.25,1.16l0,0l0,0q0.14,0.59 0.28,1.08l0,0l0,0q0.14,0.49 0.27,0.85l0,0l0,0q0.14,0.35 0.23,0.47zm26.21,4.01l0,0l0,0q0,-0.58 0.2,-1.51l0,0l0,0q0.19,-0.92 0.52,-1.97l0,0l0,0q-0.93,0.07 -1.86,0.18l0,0l0,0q-0.93,0.11 -1.62,0.13l0,0l0,0q-0.63,1.47 -1,2.7l0,0l0,0q-0.37,1.24 -0.58,2.42l0,0l0,0q-0.53,-0.13 -0.88,-0.44l0,0l0,0q-0.35,-0.32 -0.64,-0.79l0,0l0,0q0.11,-0.23 0.25,-0.58l0,0l0,0q0.15,-0.35 0.35,-0.84l0,0l0,0q0.21,-0.5 0.47,-1.16l0,0l0,0q0.26,-0.67 0.59,-1.55l0,0l0,0q-0.46,-0.2 -0.61,-0.55l0,0l0,0q0.07,-0.05 0.31,-0.12l0,0l0,0q0.25,-0.06 0.61,-0.13l0,0l0.18,-0.45l0,0q0.3,-0.75 0.48,-1.27l0,0l0,0q0.19,-0.52 0.33,-1.02l0,0l0,0q0.13,-0.49 0.25,-1.1l0,0l0,0q0.12,-0.6 0.29,-1.52l0,0l0,0q0.58,0.11 1.07,0.52l0,0l0,0q0.48,0.4 0.83,0.98l0,0l0,0q-0.13,0.16 -0.31,0.5l0,0l0,0q-0.18,0.34 -0.4,0.8l0,0l0,0q-0.21,0.47 -0.47,1.05l0,0l0,0q-0.25,0.59 -0.54,1.23l0,0l0,0q0.87,-0.11 1.75,-0.21l0,0l0,0q0.89,-0.1 1.58,-0.14l0,0l0,0q0.25,-0.73 0.53,-1.42l0,0l0,0q0.27,-0.69 0.53,-1.27l0,0l0,0q0.27,-0.57 0.51,-1.01l0,0l0,0q0.25,-0.43 0.45,-0.64l0,0l0,0q0.14,0.01 0.37,0.11l0,0l0,0q0.23,0.09 0.47,0.21l0,0l0,0q0.23,0.13 0.43,0.28l0,0l0,0q0.2,0.14 0.27,0.27l0,0l0,0q-0.26,0.24 -0.51,0.61l0,0l0,0q-0.25,0.38 -0.49,0.87l0,0l0,0q-0.25,0.49 -0.49,1.07l0,0l0,0q-0.24,0.57 -0.45,1.19l0,0l0,0q0.28,0.25 0.28,0.63l0,0l0,0q0,0.26 -0.11,0.49l0,0l0,0q-0.12,-0.03 -0.25,-0.04l0,0l0,0q-0.13,-0.01 -0.27,-0.02l0,0l0,0q-0.23,0.76 -0.43,1.5l0,0l0,0q-0.2,0.74 -0.33,1.41l0,0l0,0q-0.13,0.67 -0.21,1.23l0,0l0,0q-0.08,0.56 -0.08,0.94l0,0l0,0q0,0.14 0.01,0.23l0,0l0,0q0.01,0.08 0.02,0.14l0,0l0,0q-0.31,-0.02 -0.45,-0.11l0,0l0,0q-0.14,-0.09 -0.21,-0.19l0,0l0,0q-0.07,-0.11 -0.12,-0.21l0,0l0,0q-0.06,-0.11 -0.18,-0.17l0,0l0,0q-0.1,-0.04 -0.19,-0.19l0,0l0,0q-0.08,-0.16 -0.14,-0.35l0,0l0,0q-0.05,-0.2 -0.08,-0.39l0,0l0,0q-0.03,-0.2 -0.03,-0.33zm11.62,1.88l0,0l0,0q-0.67,-0.2 -0.93,-0.39l0,0l0,0q-0.26,-0.2 -0.26,-0.49l0,0l0,0q0,-0.23 0.13,-0.63l0,0l0,0q0.12,-0.41 0.37,-0.96l0,0l0,0q0.24,-0.55 0.59,-1.23l0,0l0,0q0.34,-0.67 0.77,-1.44l0,0l0,0q-0.36,-0.01 -0.65,-0.02l0,0l0,0q-0.28,-0.01 -0.47,-0.01l0,0l0,0q0.09,-0.21 0.48,-0.36l0,0l0,0q0.39,-0.15 1.04,-0.27l0,0l0,0q0.54,-0.91 1.16,-1.73l0,0l0,0q0.63,-0.83 1.26,-1.52l0,0l0,0q0.63,-0.69 1.26,-1.22l0,0l0,0q0.63,-0.52 1.2,-0.83l0,0l0,0q0.02,-0.1 0.02,-0.17l0,0l0,0q0.01,-0.07 0.01,-0.1l0,0l0,0q0.2,0 0.52,0.1l0,0l0,0q0.33,0.1 0.65,0.24l0,0l0,0q0.31,0.14 0.56,0.28l0,0l0,0q0.24,0.15 0.27,0.25l0,0l0,0q-0.46,0.81 -0.91,2.43l0,0l0,0q-0.45,1.62 -0.74,3.87l0,0l0,0q-0.07,0.56 -0.12,1.27l0,0l0,0q-0.05,0.72 -0.05,1.6l0,0l0,0q0,0.31 0,0.63l0,0l0,0q0,0.32 0.03,0.67l0,0l0,0q-0.03,0.02 -0.06,0.02l0,0l0,0q-0.02,0 -0.11,0l0,0l0,0q-0.19,0 -0.45,-0.07l0,0l0,0q-0.26,-0.06 -0.51,-0.15l0,0l0,0q-0.24,-0.09 -0.42,-0.2l0,0l0,0q-0.17,-0.12 -0.21,-0.2l0,0l0,0q-0.02,-0.18 -0.02,-0.36l0,0l0,0q0,-0.17 0,-0.37l0,0l0,0q0,-0.87 0.06,-1.76l0,0l0,0q0.07,-0.9 0.22,-1.85l0,0l0,0q-0.19,-0.01 -0.52,-0.04l0,0l0,0q-0.32,-0.02 -0.72,-0.03l0,0l0,0q-0.4,-0.01 -0.85,-0.04l0,0l0,0q-0.46,-0.02 -0.89,-0.03l0,0l0,0q-0.34,0.63 -0.63,1.25l0,0l0,0q-0.29,0.63 -0.5,1.26l0,0l0,0q-0.24,0.67 -0.39,1.34l0,0l0,0q-0.15,0.67 -0.19,1.26zm5.41,-8.41l0,0l0,0q0.05,-0.2 0.13,-0.54l0,0l0,0q0.08,-0.35 0.15,-0.72l0,0l0,0q-0.35,0.12 -0.78,0.46l0,0l0,0q-0.43,0.33 -0.88,0.83l0,0l0,0q-0.46,0.5 -0.93,1.12l0,0l0,0q-0.47,0.62 -0.9,1.32l0,0l0,0q1.18,-0.09 2.67,-0.12l0,0l0,0q0.12,-0.59 0.25,-1.17l0,0l0,0q0.13,-0.58 0.29,-1.18zm19.47,-0.37l0,0l0,0q0,0.67 -0.3,1.27l0,0l0,0q-0.3,0.59 -0.83,1.06l0,0l0,0q-0.54,0.47 -1.25,0.79l0,0l0,0q-0.71,0.33 -1.55,0.44l0,0l0,0q0.21,0.63 0.51,1.29l0,0l0,0q0.3,0.67 0.65,1.28l0,0l0,0q0.35,0.62 0.73,1.14l0,0l0,0q0.37,0.52 0.74,0.85l0,0l0,0q-0.07,0.14 -0.21,0.28l0,0l0,0q-0.13,0.14 -0.3,0.26l0,0l0,0q-0.18,0.12 -0.37,0.2l0,0l0,0q-0.19,0.07 -0.35,0.07l0,0l0,0q-0.31,0 -0.59,-0.29l0,0l0,0q-0.28,-0.29 -0.57,-0.93l0,0l0,0q-0.29,-0.64 -0.6,-1.65l0,0l0,0q-0.32,-1.02 -0.69,-2.45l0,0l0,0q-0.16,0 -0.31,0l0,0l0,0q-0.16,0 -0.24,-0.02l0,0l0,0q-0.1,-0.06 -0.21,-0.2l0,0l0,0q-0.38,0.81 -0.67,1.53l0,0l0,0q-0.3,0.71 -0.53,1.38l0,0l0,0q-0.23,0.66 -0.4,1.28l0,0l0,0q-0.18,0.63 -0.3,1.27l0,0l0,0q-0.48,-0.11 -0.83,-0.41l0,0l0,0q-0.35,-0.29 -0.66,-0.82l0,0l0,0q0.06,-0.13 0.12,-0.25l0,0l0,0q0.06,-0.12 0.16,-0.33l0,0l0,0q0.1,-0.22 0.25,-0.56l0,0l0,0q0.14,-0.33 0.39,-0.89l0,0l0,0q0.24,-0.56 0.59,-1.37l0,0l0,0q0.34,-0.82 0.83,-1.98l0,0l0,0q0.22,-0.52 0.38,-0.91l0,0l0,0q0.17,-0.39 0.29,-0.75l0,0l0,0q0.13,-0.35 0.23,-0.71l0,0l0,0q0.11,-0.36 0.22,-0.82l0,0l0,0q-0.64,0.22 -1.2,0.5l0,0l0,0q-0.55,0.27 -0.91,0.58l0,0l0,0q-0.13,-0.09 -0.26,-0.25l0,0l0,0q-0.14,-0.17 -0.25,-0.38l0,0l0,0q-0.11,-0.2 -0.19,-0.41l0,0l0,0q-0.09,-0.21 -0.1,-0.38l0,0l0,0q0.42,-0.28 1.03,-0.51l0,0l0,0q0.61,-0.24 1.29,-0.42l0,0l0,0q0.69,-0.17 1.4,-0.27l0,0l0,0q0.72,-0.1 1.33,-0.1l0,0l0,0q1.68,0 2.61,0.69l0,0l0,0q0.92,0.7 0.92,1.9zm-3.58,-1.44l0.16,0.27l0,0q-0.09,0.12 -0.3,0.5l0,0l0,0q-0.21,0.38 -0.49,0.9l0,0l0,0q-0.27,0.53 -0.57,1.14l0,0l0,0q-0.3,0.62 -0.58,1.22l0,0l0,0q1.05,0 1.93,-0.19l0,0l0,0q0.88,-0.2 1.53,-0.56l0,0l0,0q0.64,-0.35 1,-0.84l0,0l0,0q0.35,-0.48 0.35,-1.07l0,0l0,0q0,-0.7 -0.5,-1.07l0,0l0,0q-0.5,-0.37 -1.55,-0.37l0,0l0,0q-0.24,0 -0.48,0.02l0,0l0,0q-0.24,0.02 -0.5,0.05l0,0zm11.67,8.43l0,0l0,0q0.21,-0.46 0.51,-1.19l0,0l0,0q0.29,-0.73 0.61,-1.58l0,0l0,0q0.32,-0.84 0.66,-1.73l0,0l0,0q0.34,-0.89 0.63,-1.69l0,0l0,0q0.29,-0.8 0.51,-1.43l0,0l0,0q0.22,-0.63 0.32,-0.96l0,0l0,0q-0.89,0.36 -1.52,1.1l0,0l0,0q-0.63,0.74 -0.95,1.86l0,0l0,0q-0.32,-0.11 -0.59,-0.4l0,0l0,0q-0.26,-0.28 -0.35,-0.72l0,0l0,0q0.14,-0.64 0.53,-1.17l0,0l0,0q0.38,-0.53 0.97,-0.91l0,0l0,0q0.59,-0.38 1.36,-0.58l0,0l0,0q0.77,-0.21 1.65,-0.21l0,0l0,0q1.12,0 2.06,0.33l0,0l0,0q0.94,0.33 1.61,0.92l0,0l0,0q0.67,0.59 1.05,1.41l0,0l0,0q0.38,0.83 0.38,1.84l0,0l0,0q0,1.37 -0.51,2.62l0,0l0,0q-0.5,1.24 -1.36,2.19l0,0l0,0q-0.86,0.96 -2,1.52l0,0l0,0q-1.13,0.57 -2.38,0.57l0,0l0,0q-1.14,0 -1.96,-0.45l0,0l0,0q-0.82,-0.46 -1.23,-1.34zm4.94,-8.91l0,0l0,0q-0.7,0 -1.33,0.2l0,0l0,0q0.62,0.22 1.03,0.47l0,0l0,0q0.4,0.24 0.56,0.38l0,0l0,0q-0.12,0.16 -0.33,0.55l0,0l0,0q-0.22,0.39 -0.51,0.95l0,0l0,0q-0.28,0.56 -0.61,1.23l0,0l0,0q-0.32,0.66 -0.63,1.36l0,0l0,0q-0.79,1.78 -1.15,2.8l0,0l0,0q-0.36,1.02 -0.36,1.42l0,0l0,0q0.2,0.07 0.48,0.09l0,0l0,0q0.28,0.03 0.6,0.03l0,0l0,0q1.13,0 2.15,-0.52l0,0l0,0q1.01,-0.53 1.78,-1.41l0,0l0,0q0.76,-0.88 1.2,-2.05l0,0l0,0q0.44,-1.17 0.44,-2.46l0,0l0,0q0,-1.44 -0.89,-2.24l0,0l0,0q-0.9,-0.8 -2.43,-0.8zm17.8,3.67l0,0l0,0q0.46,0 0.72,0.25l0,0l0,0q0.26,0.26 0.26,0.7l0,0l0,0q0,0.12 -0.02,0.23l0,0l0,0q-0.02,0.12 -0.05,0.21l0,0l0,0q-0.18,-0.03 -0.41,-0.05l0,0l0,0q-0.22,-0.02 -0.53,-0.02l0,0l0,0q-0.6,0 -1.22,0.1l0,0l0,0q-0.61,0.11 -1.17,0.18l0,0l0,0q-0.33,0.74 -0.59,1.43l0,0l0,0q-0.27,0.7 -0.46,1.27l0,0l0,0q-0.19,0.57 -0.29,0.99l0,0l0,0q-0.11,0.42 -0.12,0.63l0,0l0,0q1.13,-0.23 2.29,-0.4l0,0l0,0q1.15,-0.17 2.43,-0.25l0,0l0,0q0.15,0.23 0.26,0.51l0,0l0,0q0.1,0.28 0.1,0.61l0,0l0,0q0,0.08 0,0.18l0,0l0,0q0,0.1 -0.03,0.19l0,0l0,0q-0.39,-0.01 -0.82,-0.02l0,0l0,0q-0.44,0 -1.14,0l0,0l0,0q-0.46,0 -0.87,0.02l0,0l0,0q-0.41,0.02 -0.83,0.06l0,0l0,0q-0.42,0.04 -0.89,0.11l0,0l0,0q-0.47,0.07 -1.06,0.17l0,0l0,0q-0.64,-0.25 -1.25,-1.23l0,0l0,0q0.24,-0.51 0.67,-1.54l0,0l0,0q0.43,-1.02 1.08,-2.75l0,0l0,0q-0.63,-0.19 -0.82,-0.7l0,0l0,0q0.07,-0.07 0.4,-0.17l0,0l0,0q0.34,-0.11 0.83,-0.22l0,0l0,0q0.21,-0.54 0.36,-0.95l0,0l0,0q0.14,-0.41 0.26,-0.76l0,0l0,0q0.11,-0.36 0.2,-0.7l0,0l0,0q0.09,-0.35 0.17,-0.75l0,0l0,0q-0.49,-0.03 -0.77,-0.27l0,0l0,0q-0.28,-0.25 -0.28,-0.64l0,0l0,0q0,-0.11 0.04,-0.27l0,0l0,0q0.03,-0.15 0.08,-0.26l0,0l0,0q0.28,0.04 0.53,0.05l0,0l0,0q0.26,0.02 0.68,0.02l0,0l0,0q0.89,0 1.66,-0.05l0,0l0,0q0.77,-0.05 1.39,-0.11l0,0l0,0q0.62,-0.05 1.07,-0.1l0,0l0,0q0.45,-0.05 0.69,-0.05l0,0l0,0q0.32,0 0.57,0.33l0,0l0,0q0.25,0.34 0.38,0.96l0,0l0,0q-0.44,-0.05 -0.71,-0.06l0,0l0,0q-0.27,-0.01 -0.48,-0.01l0,0l0,0q-0.77,0 -1.41,0.07l0,0l0,0q-0.64,0.08 -1.22,0.16l0,0l0,0q-0.09,0.13 -0.19,0.33l0,0l0,0q-0.11,0.19 -0.28,0.54l0,0l0,0q-0.16,0.35 -0.41,0.88l0,0l0,0q-0.24,0.54 -0.59,1.33l0,0l0,0q0.53,-0.08 1,-0.13l0,0l0,0q0.47,-0.05 0.79,-0.05zm19.26,-1.75l0,0l0,0q0,0.67 -0.3,1.27l0,0l0,0q-0.3,0.59 -0.83,1.06l0,0l0,0q-0.53,0.47 -1.25,0.79l0,0l0,0q-0.71,0.33 -1.55,0.44l0,0l0,0q0.21,0.63 0.51,1.29l0,0l0,0q0.3,0.67 0.65,1.28l0,0l0,0q0.35,0.62 0.73,1.14l0,0l0,0q0.38,0.52 0.74,0.85l0,0l0,0q-0.07,0.14 -0.2,0.28l0,0l0,0q-0.14,0.14 -0.31,0.26l0,0l0,0q-0.18,0.12 -0.36,0.2l0,0l0,0q-0.19,0.07 -0.36,0.07l0,0l0,0q-0.31,0 -0.59,-0.29l0,0l0,0q-0.28,-0.29 -0.57,-0.93l0,0l0,0q-0.28,-0.64 -0.6,-1.65l0,0l0,0q-0.31,-1.02 -0.69,-2.45l0,0l0,0q-0.16,0 -0.31,0l0,0l0,0q-0.15,0 -0.24,-0.02l0,0l0,0q-0.1,-0.06 -0.21,-0.2l0,0l0,0q-0.38,0.81 -0.67,1.53l0,0l0,0q-0.29,0.71 -0.52,1.38l0,0l0,0q-0.24,0.66 -0.41,1.28l0,0l0,0q-0.18,0.63 -0.3,1.27l0,0l0,0q-0.48,-0.11 -0.83,-0.41l0,0l0,0q-0.35,-0.29 -0.66,-0.82l0,0l0,0q0.06,-0.13 0.12,-0.25l0,0l0,0q0.07,-0.12 0.16,-0.33l0,0l0,0q0.1,-0.22 0.25,-0.56l0,0l0,0q0.15,-0.33 0.39,-0.89l0,0l0,0q0.25,-0.56 0.59,-1.37l0,0l0,0q0.34,-0.82 0.83,-1.98l0,0l0,0q0.23,-0.52 0.39,-0.91l0,0l0,0q0.16,-0.39 0.28,-0.75l0,0l0,0q0.13,-0.35 0.24,-0.71l0,0l0,0q0.1,-0.36 0.21,-0.82l0,0l0,0q-0.64,0.22 -1.19,0.5l0,0l0,0q-0.56,0.27 -0.92,0.58l0,0l0,0q-0.13,-0.09 -0.26,-0.25l0,0l0,0q-0.13,-0.17 -0.25,-0.38l0,0l0,0q-0.11,-0.2 -0.19,-0.41l0,0l0,0q-0.09,-0.21 -0.1,-0.38l0,0l0,0q0.42,-0.28 1.03,-0.51l0,0l0,0q0.61,-0.24 1.29,-0.42l0,0l0,0q0.69,-0.17 1.4,-0.27l0,0l0,0q0.72,-0.1 1.33,-0.1l0,0l0,0q1.68,0 2.61,0.69l0,0l0,0q0.92,0.7 0.92,1.9zm-3.58,-1.44l0.17,0.27l0,0q-0.1,0.12 -0.31,0.5l0,0l0,0q-0.21,0.38 -0.48,0.9l0,0l0,0q-0.28,0.53 -0.58,1.14l0,0l0,0q-0.3,0.62 -0.58,1.22l0,0l0,0q1.05,0 1.93,-0.19l0,0l0,0q0.88,-0.2 1.53,-0.56l0,0l0,0q0.64,-0.35 1,-0.84l0,0l0,0q0.36,-0.48 0.36,-1.07l0,0l0,0q0,-0.7 -0.51,-1.07l0,0l0,0q-0.5,-0.37 -1.55,-0.37l0,0l0,0q-0.24,0 -0.48,0.02l0,0l0,0q-0.24,0.02 -0.5,0.05l0,0zm22.86,9.59l0,0l0,0q-0.07,-0.57 -0.1,-1.25l0,0l0,0q-0.04,-0.68 -0.04,-1.27l0,0l0,0q0,-0.94 0.06,-1.8l0,0l0,0q0.07,-0.86 0.16,-1.81l0,0l0,0q0.09,-0.94 0.2,-2.05l0,0l0,0q0.11,-1.12 0.2,-2.57l0,0l0,0q0.18,0 0.52,0.1l0,0l0,0q0.34,0.11 0.69,0.25l0,0l0,0q0.35,0.14 0.62,0.28l0,0l0,0q0.27,0.15 0.31,0.25l0,0l0,0q-0.24,0.55 -0.43,1.44l0,0l0,0q-0.19,0.88 -0.31,1.93l0,0l0,0q-0.13,1.05 -0.2,2.16l0,0l0,0q-0.07,1.11 -0.07,2.07l0,0l0,0q0,0.45 0.01,0.88l0,0l0,0q0.02,0.44 0.05,0.8l0,0l0,0q0.29,-0.43 0.67,-1.24l0,0l0,0q0.39,-0.8 0.8,-1.8l0,0l0,0q0.42,-0.99 0.83,-2.07l0,0l0,0q0.41,-1.09 0.76,-2.08l0,0l0,0q0.35,-0.98 0.6,-1.78l0,0l0,0q0.24,-0.79 0.34,-1.19l0,0l0,0q0.18,0 0.54,0.1l0,0l0,0q0.36,0.11 0.7,0.25l0,0l0,0q0.34,0.14 0.61,0.28l0,0l0,0q0.26,0.15 0.29,0.25l0,0l0,0q-0.24,0.55 -0.42,1.44l0,0l0,0q-0.19,0.88 -0.32,1.93l0,0l0,0q-0.13,1.05 -0.2,2.16l0,0l0,0q-0.07,1.11 -0.07,2.07l0,0l0,0q0,0.41 0.01,0.81l0,0l0,0q0.01,0.4 0.04,0.72l0,0l0,0q0.44,-1.16 0.93,-2.31l0,0l0,0q0.48,-1.14 0.96,-2.18l0,0l0,0q0.47,-1.04 0.92,-1.95l0,0l0,0q0.45,-0.9 0.83,-1.61l0,0l0,0q0.37,-0.7 0.65,-1.16l0,0l0,0q0.28,-0.47 0.44,-0.62l0,0l0,0q0.32,0.04 0.66,0.23l0,0l0,0q0.35,0.19 0.61,0.48l0,0l0,0q-0.4,0.33 -0.92,1.06l0,0l0,0q-0.52,0.74 -1.07,1.7l0,0l0,0q-0.54,0.97 -1.09,2.06l0,0l0,0q-0.56,1.09 -1.03,2.13l0,0l0,0q-0.48,1.03 -0.85,1.93l0,0l0,0q-0.37,0.9 -0.57,1.44l0,0l0,0q-0.36,0.17 -0.71,0.17l0,0l0,0q-0.45,-0.06 -0.85,-0.22l0,0l0,0q-0.4,-0.17 -0.57,-0.41l0,0l0,0q-0.04,-0.22 -0.07,-0.52l0,0l0,0q-0.02,-0.31 -0.04,-0.6l0,0l0,0q-0.01,-0.29 -0.02,-0.57l0,0l0,0q-0.01,-0.27 -0.01,-0.47l0,0l0,0q0,-1.24 0.1,-2.54l0,0l0,0q0.1,-1.29 0.24,-2.78l0,0l0,0q-0.32,0.96 -0.71,2.05l0,0l0,0q-0.4,1.09 -0.82,2.16l0,0l0,0q-0.43,1.07 -0.87,2.04l0,0l0,0q-0.44,0.98 -0.86,1.69l0,0l0,0q-0.37,0.17 -0.72,0.17l0,0l0,0q-0.44,-0.06 -0.84,-0.22l0,0l0,0q-0.4,-0.17 -0.57,-0.41zm18.97,-1.23l0,0l0,0q0,-0.51 0.16,-1.31l0,0l0,0q0.16,-0.81 0.42,-1.74l0,0l0,0q0.26,-0.93 0.6,-1.9l0,0l0,0q0.33,-0.97 0.68,-1.83l0,0l0,0q0.35,-0.85 0.69,-1.5l0,0l0,0q0.33,-0.64 0.6,-0.92l0,0l0,0q0.14,0.01 0.37,0.11l0,0l0,0q0.23,0.09 0.47,0.21l0,0l0,0q0.24,0.13 0.43,0.28l0,0l0,0q0.2,0.14 0.26,0.27l0,0l0,0q-0.41,0.36 -0.81,1.1l0,0l0,0q-0.4,0.73 -0.77,1.67l0,0l0,0q-0.37,0.94 -0.69,1.98l0,0l0,0q-0.32,1.04 -0.56,2.02l0,0l0,0q-0.24,0.98 -0.37,1.82l0,0l0,0q-0.14,0.84 -0.14,1.36l0,0l0,0q0,0.24 0.05,0.3l0,0l0,0q-0.31,-0.02 -0.45,-0.11l0,0l0,0q-0.14,-0.09 -0.22,-0.19l0,0l0,0q-0.08,-0.11 -0.14,-0.21l0,0l0,0q-0.06,-0.11 -0.19,-0.17l0,0l0,0q-0.1,-0.04 -0.17,-0.19l0,0l0,0q-0.07,-0.16 -0.11,-0.34l0,0l0,0q-0.05,-0.19 -0.08,-0.39l0,0l0,0q-0.03,-0.2 -0.03,-0.32zm13.76,-7.69l0,0l0,0q-0.56,0 -0.86,-0.31l0,0l0,0q-0.3,-0.32 -0.3,-0.77l0,0l0,0q0,-0.11 0.04,-0.26l0,0l0,0q0.03,-0.16 0.09,-0.27l0,0l0,0q0.18,0.09 0.54,0.12l0,0l0,0q0.35,0.04 0.83,0.04l0,0l0,0q0.71,0 1.62,-0.07l0,0l0,0q0.9,-0.06 1.72,-0.13l0,0l0,0q0.83,-0.07 1.46,-0.13l0,0l0,0q0.63,-0.07 0.81,-0.07l0,0l0,0q0.52,0 0.75,0.39l0,0l0,0q0.23,0.38 0.34,1.03l0,0l0,0q-0.36,-0.03 -0.72,-0.05l0,0l0,0q-0.35,-0.02 -0.61,-0.02l0,0l0,0q-0.44,0 -0.9,0.03l0,0l0,0q-0.45,0.02 -0.92,0.08l0,0l0,0q-0.19,0.41 -0.43,0.96l0,0l0,0q-0.24,0.55 -0.47,1.15l0,0l0,0q-0.23,0.61 -0.44,1.2l0,0l0,0q-0.21,0.6 -0.36,1.07l0,0l0,0q-0.31,0.93 -0.54,1.71l0,0l0,0q-0.23,0.78 -0.41,1.46l0,0l0,0q-0.17,0.68 -0.3,1.3l0,0l0,0q-0.13,0.61 -0.22,1.2l0,0l0,0q-0.94,-0.14 -1.57,-1.17l0,0l0,0q0.11,-0.44 0.27,-0.95l0,0l0,0q0.16,-0.51 0.38,-1.16l0,0l0,0q0.22,-0.65 0.51,-1.48l0,0l0,0q0.29,-0.82 0.67,-1.87l0,0l0,0q0.14,-0.4 0.3,-0.82l0,0l0,0q0.15,-0.43 0.3,-0.85l0,0l0,0q0.14,-0.42 0.26,-0.81l0,0l0,0q0.12,-0.39 0.21,-0.72l0,0l0,0q-0.59,0.07 -1.12,0.12l0,0l0,0q-0.52,0.05 -0.93,0.05zm17.92,7.67l0,0l0,0q0,-0.58 0.2,-1.51l0,0l0,0q0.19,-0.92 0.52,-1.97l0,0l0,0q-0.93,0.07 -1.86,0.18l0,0l0,0q-0.93,0.11 -1.62,0.13l0,0l0,0q-0.63,1.47 -1,2.7l0,0l0,0q-0.37,1.24 -0.58,2.42l0,0l0,0q-0.53,-0.13 -0.88,-0.44l0,0l0,0q-0.35,-0.32 -0.64,-0.79l0,0l0,0q0.11,-0.23 0.26,-0.58l0,0l0,0q0.14,-0.35 0.35,-0.84l0,0l0,0q0.2,-0.5 0.46,-1.16l0,0l0,0q0.26,-0.67 0.59,-1.55l0,0l0,0q-0.46,-0.2 -0.61,-0.55l0,0l0,0q0.07,-0.05 0.31,-0.12l0,0l0,0q0.25,-0.06 0.61,-0.13l0,0l0.18,-0.45l0,0q0.3,-0.75 0.49,-1.27l0,0l0,0q0.18,-0.52 0.32,-1.02l0,0l0,0q0.13,-0.49 0.25,-1.1l0,0l0,0q0.12,-0.6 0.29,-1.52l0,0l0,0q0.58,0.11 1.07,0.52l0,0l0,0q0.48,0.4 0.83,0.98l0,0l0,0q-0.13,0.16 -0.31,0.5l0,0l0,0q-0.18,0.34 -0.4,0.8l0,0l0,0q-0.21,0.47 -0.47,1.05l0,0l0,0q-0.25,0.59 -0.54,1.23l0,0l0,0q0.87,-0.11 1.76,-0.21l0,0l0,0q0.88,-0.1 1.57,-0.14l0,0l0,0q0.25,-0.73 0.53,-1.42l0,0l0,0q0.27,-0.69 0.53,-1.27l0,0l0,0q0.27,-0.57 0.52,-1.01l0,0l0,0q0.24,-0.43 0.44,-0.64l0,0l0,0q0.14,0.01 0.37,0.11l0,0l0,0q0.23,0.09 0.47,0.21l0,0l0,0q0.23,0.13 0.43,0.28l0,0l0,0q0.2,0.14 0.27,0.27l0,0l0,0q-0.26,0.24 -0.51,0.61l0,0l0,0q-0.25,0.38 -0.49,0.87l0,0l0,0q-0.25,0.49 -0.49,1.07l0,0l0,0q-0.24,0.57 -0.45,1.19l0,0l0,0q0.28,0.25 0.28,0.63l0,0l0,0q0,0.26 -0.11,0.49l0,0l0,0q-0.12,-0.03 -0.25,-0.04l0,0l0,0q-0.13,-0.01 -0.27,-0.02l0,0l0,0q-0.23,0.76 -0.43,1.5l0,0l0,0q-0.2,0.74 -0.33,1.41l0,0l0,0q-0.13,0.67 -0.21,1.23l0,0l0,0q-0.08,0.56 -0.08,0.94l0,0l0,0q0,0.14 0.01,0.23l0,0l0,0q0.01,0.08 0.02,0.14l0,0l0,0q-0.31,-0.02 -0.45,-0.11l0,0l0,0q-0.14,-0.09 -0.21,-0.19l0,0l0,0q-0.07,-0.11 -0.12,-0.21l0,0l0,0q-0.06,-0.11 -0.18,-0.17l0,0l0,0q-0.1,-0.04 -0.19,-0.19l0,0l0,0q-0.08,-0.16 -0.14,-0.35l0,0l0,0q-0.05,-0.2 -0.08,-0.39l0,0l0,0q-0.03,-0.2 -0.03,-0.33zm30.45,-8.62l0,0l0,0q0.04,0.24 0.06,0.33l0,0l0,0q0.03,0.09 0.03,0.24l0,0l0,0q0,0.47 -0.21,0.87l0,0l0,0q-0.2,0.39 -0.55,0.56l0,0l0,0q-0.28,-0.38 -0.69,-0.65l0,0l0,0q-0.4,-0.27 -0.89,-0.45l0,0l0,0q-0.48,-0.17 -1,-0.26l0,0l0,0q-0.51,-0.08 -1,-0.08l0,0l0,0q-0.49,0 -0.92,0.08l0,0l0,0q-0.43,0.07 -0.76,0.21l0,0l0,0q-0.33,0.13 -0.52,0.33l0,0l0,0q-0.18,0.19 -0.18,0.44l0,0l0,0q0.04,0.31 0.37,0.63l0,0l0,0q0.34,0.31 0.83,0.61l0,0l0,0q0.49,0.3 1.08,0.6l0,0l0,0q0.6,0.29 1.17,0.56l0,0l0,0q0.72,0.33 1.24,0.62l0,0l0,0q0.51,0.29 0.85,0.63l0,0l0,0q0.34,0.34 0.5,0.78l0,0l0,0q0.17,0.43 0.17,1.05l0,0l0,0q0,0.71 -0.24,1.34l0,0l0,0q-0.23,0.62 -0.69,1.08l0,0l0,0q-0.45,0.46 -1.1,0.72l0,0l0,0q-0.64,0.26 -1.44,0.26l0,0l0,0q-0.78,0 -1.69,-0.24l0,0l0,0q-0.91,-0.24 -1.71,-0.65l0,0l0,0q-0.79,-0.41 -1.31,-0.95l0,0l0,0q-0.53,-0.54 -0.53,-1.14l0,0l0,0q0,-0.28 0.16,-0.72l0,0l0,0q0.17,-0.43 0.59,-0.91l0,0l0,0q0.04,0.42 0.45,1l0,0l0,0q0.41,0.57 1.24,1.06l0,0l0,0q0.77,0.45 1.59,0.65l0,0l0,0q0.82,0.21 1.53,0.21l0,0l0,0q0.79,0 1.28,-0.2l0,0l0,0q0.49,-0.2 0.77,-0.47l0,0l0,0q0.28,-0.27 0.39,-0.55l0,0l0,0q0.11,-0.28 0.12,-0.45l0,0l0,0q-0.01,-0.28 -0.25,-0.54l0,0l0,0q-0.25,-0.26 -0.66,-0.5l0,0l0,0q-0.42,-0.25 -0.96,-0.5l0,0l0,0q-0.55,-0.25 -1.14,-0.5l0,0l0,0q-0.88,-0.4 -1.52,-0.74l0,0l0,0q-0.63,-0.34 -1.04,-0.7l0,0l0,0q-0.42,-0.36 -0.61,-0.75l0,0l0,0q-0.19,-0.39 -0.19,-0.89l0,0l0,0q0,-0.79 0.48,-1.49l0,0l0,0q0.48,-0.7 1.37,-1.06l0,0l0,0q0.45,-0.2 0.96,-0.28l0,0l0,0q0.51,-0.09 1,-0.09l0,0l0,0q0.93,0 1.81,0.26l0,0l0,0q0.88,0.25 1.76,0.64zm8.33,10.5l0,0l0,0q-0.67,-0.2 -0.93,-0.39l0,0l0,0q-0.26,-0.2 -0.26,-0.49l0,0l0,0q0,-0.23 0.13,-0.63l0,0l0,0q0.12,-0.41 0.37,-0.96l0,0l0,0q0.24,-0.55 0.59,-1.23l0,0l0,0q0.34,-0.67 0.77,-1.44l0,0l0,0q-0.36,-0.01 -0.65,-0.02l0,0l0,0q-0.28,-0.01 -0.47,-0.01l0,0l0,0q0.09,-0.21 0.48,-0.36l0,0l0,0q0.39,-0.15 1.04,-0.27l0,0l0,0q0.54,-0.91 1.16,-1.73l0,0l0,0q0.63,-0.83 1.26,-1.52l0,0l0,0q0.63,-0.69 1.26,-1.22l0,0l0,0q0.63,-0.52 1.2,-0.83l0,0l0,0q0.02,-0.1 0.02,-0.17l0,0l0,0q0.01,-0.07 0.01,-0.1l0,0l0,0q0.2,0 0.52,0.1l0,0l0,0q0.33,0.1 0.65,0.24l0,0l0,0q0.31,0.14 0.56,0.28l0,0l0,0q0.24,0.15 0.27,0.25l0,0l0,0q-0.46,0.81 -0.91,2.43l0,0l0,0q-0.45,1.62 -0.74,3.87l0,0l0,0q-0.07,0.56 -0.12,1.27l0,0l0,0q-0.05,0.72 -0.05,1.6l0,0l0,0q0,0.31 0,0.63l0,0l0,0q0,0.32 0.03,0.67l0,0l0,0q-0.03,0.02 -0.06,0.02l0,0l0,0q-0.02,0 -0.11,0l0,0l0,0q-0.19,0 -0.45,-0.07l0,0l0,0q-0.26,-0.06 -0.51,-0.15l0,0l0,0q-0.24,-0.09 -0.42,-0.2l0,0l0,0q-0.17,-0.12 -0.21,-0.2l0,0l0,0q-0.02,-0.18 -0.02,-0.36l0,0l0,0q0,-0.17 0,-0.37l0,0l0,0q0,-0.87 0.06,-1.76l0,0l0,0q0.07,-0.9 0.22,-1.85l0,0l0,0q-0.19,-0.01 -0.52,-0.04l0,0l0,0q-0.32,-0.02 -0.72,-0.03l0,0l0,0q-0.4,-0.01 -0.85,-0.04l0,0l0,0q-0.46,-0.02 -0.89,-0.03l0,0l0,0q-0.34,0.63 -0.63,1.25l0,0l0,0q-0.29,0.63 -0.5,1.26l0,0l0,0q-0.24,0.67 -0.39,1.34l0,0l0,0q-0.15,0.67 -0.19,1.26zm5.41,-8.41l0,0l0,0q0.05,-0.2 0.13,-0.54l0,0l0,0q0.08,-0.35 0.15,-0.72l0,0l0,0q-0.35,0.12 -0.78,0.46l0,0l0,0q-0.43,0.33 -0.88,0.83l0,0l0,0q-0.46,0.5 -0.93,1.12l0,0l0,0q-0.47,0.62 -0.9,1.32l0,0l0,0q1.18,-0.09 2.67,-0.12l0,0l0,0q0.12,-0.59 0.25,-1.17l0,0l0,0q0.13,-0.58 0.29,-1.18zm15.73,8.38l0,0l0,0q-0.03,0.02 -0.05,0.02l0,0l0,0q-0.03,0 -0.12,0l0,0l0,0q-0.19,0 -0.45,-0.07l0,0l0,0q-0.26,-0.06 -0.51,-0.15l0,0l0,0q-0.24,-0.09 -0.42,-0.2l0,0l0,0q-0.17,-0.12 -0.21,-0.2l0,0l0,0q-0.02,-0.2 -0.02,-0.41l0,0l0,0q0,-0.21 0,-0.4l0,0l0,0q0,-1.57 0.23,-3.28l0,0l0,0q0.24,-1.71 0.77,-3.69l0,0l0,0q0.05,-0.2 0.12,-0.5l0,0l0,0q0.06,-0.3 0.13,-0.65l0,0l0,0q-0.34,0.26 -0.8,0.85l0,0l0,0q-0.46,0.58 -0.97,1.37l0,0l0,0q-0.51,0.79 -1.02,1.73l0,0l0,0q-0.51,0.95 -0.93,1.92l0,0l0,0q-0.42,0.97 -0.73,1.93l0,0l0,0q-0.3,0.95 -0.37,1.76l0,0l0,0q-0.67,-0.2 -0.93,-0.39l0,0l0,0q-0.26,-0.2 -0.26,-0.48l0,0l0,0q0,-0.25 0.16,-0.71l0,0l0,0q0.15,-0.46 0.43,-1.09l0,0l0,0q0.28,-0.63 0.69,-1.41l0,0l0,0q0.4,-0.78 0.89,-1.67l0,0l0,0q0.56,-1.03 1.1,-1.92l0,0l0,0q0.54,-0.9 1.06,-1.63l0,0l0,0q0.52,-0.72 1.01,-1.26l0,0l0,0q0.5,-0.53 0.99,-0.81l0,0l0,0q0.2,0 0.53,0.1l0,0l0,0q0.33,0.1 0.64,0.24l0,0l0,0q0.32,0.14 0.56,0.28l0,0l0,0q0.25,0.15 0.27,0.25l0,0l0,0q-0.19,0.39 -0.46,1.18l0,0l0,0q-0.26,0.78 -0.54,1.77l0,0l0,0q-0.27,1 -0.52,2.11l0,0l0,0q-0.24,1.11 -0.38,2.14l0,0l0,0q0.32,-0.77 0.75,-1.61l0,0l0,0q0.43,-0.83 0.9,-1.65l0,0l0,0q0.48,-0.82 0.97,-1.59l0,0l0,0q0.5,-0.77 0.98,-1.4l0,0l0,0q0.47,-0.64 0.89,-1.12l0,0l0,0q0.41,-0.47 0.73,-0.7l0,0l0,0q0.2,0 0.53,0.1l0,0l0,0q0.33,0.1 0.64,0.24l0,0l0,0q0.32,0.14 0.56,0.28l0,0l0,0q0.25,0.15 0.27,0.25l0,0l0,0q-0.44,0.8 -0.78,1.95l0,0l0,0q-0.34,1.14 -0.57,2.4l0,0l0,0q-0.23,1.26 -0.35,2.5l0,0l0,0q-0.12,1.24 -0.12,2.22l0,0l0,0q0,0.32 0,0.67l0,0l0,0q0,0.35 0.03,0.73l0,0l0,0q-0.19,0 -0.47,-0.05l0,0l0,0q-0.27,-0.05 -0.53,-0.13l0,0l0,0q-0.26,-0.08 -0.47,-0.19l0,0l0,0q-0.21,-0.1 -0.29,-0.23l0,0l0,0q-0.02,-0.2 -0.02,-0.41l0,0l0,0q0,-0.21 0,-0.4l0,0l0,0q0,-1.57 0.23,-3.28l0,0l0,0q0.24,-1.71 0.77,-3.69l0,0l0,0q0.05,-0.2 0.12,-0.54l0,0l0,0q0.07,-0.33 0.14,-0.7l0,0l0,0q-0.39,0.2 -0.89,0.75l0,0l0,0q-0.49,0.56 -1,1.35l0,0l0,0q-0.51,0.79 -1.01,1.75l0,0l0,0q-0.5,0.97 -0.9,1.97l0,0l0,0q-0.4,1 -0.67,1.99l0,0l0,0q-0.27,0.99 -0.33,1.81zm19.64,-10.46l0,0l0,0q-0.61,0.83 -1.12,1.82l0,0l0,0q-0.5,1 -0.86,2.04l0,0l0,0q-0.35,1.04 -0.54,2.06l0,0l0,0q-0.19,1.01 -0.19,1.9l0,0l0,0q0,1.09 0.32,1.58l0,0l0,0q0.32,0.49 1.11,0.49l0,0l0,0q0.91,0 1.59,-0.64l0,0l0,0q0.69,-0.64 1.29,-1.76l0,0l0,0q0.39,-0.72 0.67,-1.59l0,0l0,0q0.28,-0.87 0.46,-1.79l0,0l0,0q0.17,-0.91 0.26,-1.84l0,0l0,0q0.08,-0.94 0.08,-1.79l0,0l0,0q0,-0.55 -0.01,-0.8l0,0l0,0q-0.02,-0.25 -0.05,-0.4l0,0l0,0q0.05,0 0.21,0.02l0,0l0,0q0.17,0.03 0.39,0.07l0,0l0,0q0.22,0.05 0.43,0.12l0,0l0,0q0.22,0.07 0.37,0.15l0,0l0,0q-0.07,1.06 -0.26,2.2l0,0l0,0q-0.18,1.13 -0.49,2.24l0,0l0,0q-0.31,1.1 -0.72,2.13l0,0l0,0q-0.4,1.02 -0.91,1.83l0,0l0,0q-0.74,1.2 -1.66,1.88l0,0l0,0q-0.93,0.68 -2.19,0.68l0,0l0,0q-1.28,0 -2,-0.75l0,0l0,0q-0.71,-0.75 -0.71,-2.27l0,0l0,0q0,-0.88 0.19,-2l0,0l0,0q0.2,-1.11 0.53,-2.26l0,0l0,0q0.33,-1.16 0.76,-2.26l0,0l0,0q0.44,-1.1 0.91,-1.97l0,0l0,0q0.24,0.02 0.56,0.1l0,0l0,0q0.32,0.09 0.63,0.22l0,0l0,0q0.31,0.13 0.57,0.29l0,0l0,0q0.26,0.16 0.38,0.3zm20.91,1.71l0,0l0,0q0,0.67 -0.31,1.27l0,0l0,0q-0.3,0.59 -0.83,1.06l0,0l0,0q-0.53,0.47 -1.24,0.79l0,0l0,0q-0.72,0.33 -1.56,0.44l0,0l0,0q0.21,0.63 0.51,1.29l0,0l0,0q0.3,0.67 0.65,1.28l0,0l0,0q0.35,0.62 0.73,1.14l0,0l0,0q0.38,0.52 0.74,0.85l0,0l0,0q-0.07,0.14 -0.2,0.28l0,0l0,0q-0.13,0.14 -0.31,0.26l0,0l0,0q-0.17,0.12 -0.36,0.2l0,0l0,0q-0.19,0.07 -0.36,0.07l0,0l0,0q-0.31,0 -0.59,-0.29l0,0l0,0q-0.28,-0.29 -0.56,-0.93l0,0l0,0q-0.29,-0.64 -0.61,-1.65l0,0l0,0q-0.31,-1.02 -0.69,-2.45l0,0l0,0q-0.15,0 -0.31,0l0,0l0,0q-0.15,0 -0.23,-0.02l0,0l0,0q-0.1,-0.06 -0.21,-0.2l0,0l0,0q-0.38,0.81 -0.68,1.53l0,0l0,0q-0.29,0.71 -0.52,1.38l0,0l0,0q-0.23,0.66 -0.41,1.28l0,0l0,0q-0.17,0.63 -0.3,1.27l0,0l0,0q-0.47,-0.11 -0.82,-0.41l0,0l0,0q-0.35,-0.29 -0.66,-0.82l0,0l0,0q0.05,-0.13 0.12,-0.25l0,0l0,0q0.06,-0.12 0.16,-0.33l0,0l0,0q0.1,-0.22 0.24,-0.56l0,0l0,0q0.15,-0.33 0.39,-0.89l0,0l0,0q0.25,-0.56 0.59,-1.37l0,0l0,0q0.35,-0.82 0.84,-1.98l0,0l0,0q0.22,-0.52 0.38,-0.91l0,0l0,0q0.16,-0.39 0.29,-0.75l0,0l0,0q0.12,-0.35 0.23,-0.71l0,0l0,0q0.1,-0.36 0.22,-0.82l0,0l0,0q-0.65,0.22 -1.2,0.5l0,0l0,0q-0.55,0.27 -0.92,0.58l0,0l0,0q-0.12,-0.09 -0.26,-0.25l0,0l0,0q-0.13,-0.17 -0.24,-0.38l0,0l0,0q-0.11,-0.2 -0.2,-0.41l0,0l0,0q-0.08,-0.21 -0.1,-0.38l0,0l0,0q0.42,-0.28 1.03,-0.51l0,0l0,0q0.61,-0.24 1.3,-0.42l0,0l0,0q0.68,-0.17 1.4,-0.27l0,0l0,0q0.71,-0.1 1.33,-0.1l0,0l0,0q1.68,0 2.6,0.69l0,0l0,0q0.93,0.7 0.93,1.9zm-3.59,-1.44l0.17,0.27l0,0q-0.1,0.12 -0.31,0.5l0,0l0,0q-0.21,0.38 -0.48,0.9l0,0l0,0q-0.27,0.53 -0.58,1.14l0,0l0,0q-0.3,0.62 -0.58,1.22l0,0l0,0q1.05,0 1.94,-0.19l0,0l0,0q0.88,-0.2 1.52,-0.56l0,0l0,0q0.65,-0.35 1,-0.84l0,0l0,0q0.36,-0.48 0.36,-1.07l0,0l0,0q0,-0.7 -0.5,-1.07l0,0l0,0q-0.51,-0.37 -1.56,-0.37l0,0l0,0q-0.24,0 -0.47,0.02l0,0l0,0q-0.24,0.02 -0.51,0.05l0,0zm11.37,10.22l0,0l0,0q-0.67,-0.2 -0.93,-0.39l0,0l0,0q-0.26,-0.2 -0.26,-0.49l0,0l0,0q0,-0.23 0.13,-0.63l0,0l0,0q0.12,-0.41 0.37,-0.96l0,0l0,0q0.24,-0.55 0.58,-1.23l0,0l0,0q0.35,-0.67 0.78,-1.44l0,0l0,0q-0.36,-0.01 -0.65,-0.02l0,0l0,0q-0.29,-0.01 -0.47,-0.01l0,0l0,0q0.09,-0.21 0.48,-0.36l0,0l0,0q0.39,-0.15 1.03,-0.27l0,0l0,0q0.55,-0.91 1.17,-1.73l0,0l0,0q0.63,-0.83 1.26,-1.52l0,0l0,0q0.63,-0.69 1.26,-1.22l0,0l0,0q0.63,-0.52 1.2,-0.83l0,0l0,0q0.01,-0.1 0.02,-0.17l0,0l0,0q0.01,-0.07 0.01,-0.1l0,0l0,0q0.19,0 0.52,0.1l0,0l0,0q0.33,0.1 0.65,0.24l0,0l0,0q0.31,0.14 0.56,0.28l0,0l0,0q0.24,0.15 0.27,0.25l0,0l0,0q-0.46,0.81 -0.91,2.43l0,0l0,0q-0.45,1.62 -0.74,3.87l0,0l0,0q-0.07,0.56 -0.12,1.27l0,0l0,0q-0.05,0.72 -0.05,1.6l0,0l0,0q0,0.31 0,0.63l0,0l0,0q0,0.32 0.03,0.67l0,0l0,0q-0.03,0.02 -0.06,0.02l0,0l0,0q-0.03,0 -0.11,0l0,0l0,0q-0.2,0 -0.46,-0.07l0,0l0,0q-0.25,-0.06 -0.5,-0.15l0,0l0,0q-0.24,-0.09 -0.42,-0.2l0,0l0,0q-0.17,-0.12 -0.22,-0.2l0,0l0,0q-0.01,-0.18 -0.01,-0.36l0,0l0,0q0,-0.17 0,-0.37l0,0l0,0q0,-0.87 0.06,-1.76l0,0l0,0q0.07,-0.9 0.22,-1.85l0,0l0,0q-0.2,-0.01 -0.52,-0.04l0,0l0,0q-0.32,-0.02 -0.72,-0.03l0,0l0,0q-0.4,-0.01 -0.85,-0.04l0,0l0,0q-0.46,-0.02 -0.89,-0.03l0,0l0,0q-0.34,0.63 -0.63,1.25l0,0l0,0q-0.3,0.63 -0.51,1.26l0,0l0,0q-0.23,0.67 -0.38,1.34l0,0l0,0q-0.15,0.67 -0.19,1.26zm5.4,-8.41l0,0l0,0q0.06,-0.2 0.14,-0.54l0,0l0,0q0.07,-0.35 0.14,-0.72l0,0l0,0q-0.35,0.12 -0.77,0.46l0,0l0,0q-0.43,0.33 -0.89,0.83l0,0l0,0q-0.45,0.5 -0.92,1.12l0,0l0,0q-0.47,0.62 -0.9,1.32l0,0l0,0q1.17,-0.09 2.67,-0.12l0,0l0,0q0.11,-0.59 0.25,-1.17l0,0l0,0q0.13,-0.58 0.28,-1.18zm10.25,6.55l0,0l0,0q0,-0.51 0.16,-1.31l0,0l0,0q0.16,-0.81 0.42,-1.74l0,0l0,0q0.26,-0.93 0.6,-1.9l0,0l0,0q0.33,-0.97 0.68,-1.83l0,0l0,0q0.35,-0.85 0.69,-1.5l0,0l0,0q0.34,-0.64 0.6,-0.92l0,0l0,0q0.14,0.01 0.37,0.11l0,0l0,0q0.23,0.09 0.47,0.21l0,0l0,0q0.24,0.13 0.44,0.28l0,0l0,0q0.19,0.14 0.25,0.27l0,0l0,0q-0.41,0.36 -0.81,1.1l0,0l0,0q-0.4,0.73 -0.77,1.67l0,0l0,0q-0.37,0.94 -0.69,1.98l0,0l0,0q-0.32,1.04 -0.56,2.02l0,0l0,0q-0.24,0.98 -0.37,1.82l0,0l0,0q-0.13,0.84 -0.13,1.36l0,0l0,0q0,0.24 0.04,0.3l0,0l0,0q-0.31,-0.02 -0.45,-0.11l0,0l0,0q-0.14,-0.09 -0.22,-0.19l0,0l0,0q-0.07,-0.11 -0.14,-0.21l0,0l0,0q-0.06,-0.11 -0.19,-0.17l0,0l0,0q-0.09,-0.04 -0.16,-0.19l0,0l0,0q-0.07,-0.16 -0.12,-0.34l0,0l0,0q-0.05,-0.19 -0.08,-0.39l0,0l0,0q-0.03,-0.2 -0.03,-0.32zm30.86,-6.75l0,0l0,0q0,0.77 -0.39,1.47l0,0l0,0q-0.38,0.7 -1.03,1.22l0,0l0,0q-0.65,0.53 -1.53,0.84l0,0l0,0q-0.87,0.31 -1.85,0.31l0,0l0,0q-0.35,0 -0.56,-0.09l0,0l0,0q-0.2,-0.1 -0.45,-0.36l0,0l0,0q-0.7,1.52 -1.14,2.8l0,0l0,0q-0.44,1.29 -0.7,2.49l0,0l0,0q-0.53,-0.13 -0.86,-0.44l0,0l0,0q-0.34,-0.32 -0.62,-0.79l0,0l0,0q0.14,-0.27 0.34,-0.7l0,0l0,0q0.19,-0.44 0.47,-1.07l0,0l0,0q0.28,-0.64 0.65,-1.53l0,0l0,0q0.37,-0.89 0.88,-2.08l0,0l0,0q0.22,-0.54 0.39,-0.95l0,0l0,0q0.17,-0.41 0.29,-0.76l0,0l0,0q0.13,-0.36 0.23,-0.71l0,0l0,0q0.11,-0.35 0.22,-0.77l0,0l0,0q-0.66,0.21 -1.21,0.49l0,0l0,0q-0.55,0.28 -0.92,0.59l0,0l0,0q-0.12,-0.09 -0.26,-0.25l0,0l0,0q-0.13,-0.17 -0.24,-0.38l0,0l0,0q-0.11,-0.2 -0.2,-0.41l0,0l0,0q-0.08,-0.21 -0.09,-0.38l0,0l0,0q0.4,-0.28 1,-0.51l0,0l0,0q0.61,-0.24 1.29,-0.42l0,0l0,0q0.69,-0.17 1.42,-0.27l0,0l0,0q0.74,-0.1 1.41,-0.1l0,0l0,0q0.8,0 1.44,0.2l0,0l0,0q0.65,0.21 1.09,0.57l0,0l0,0q0.45,0.37 0.69,0.87l0,0l0,0q0.24,0.5 0.24,1.12zm-2.49,-1.68l0,0l0,0q-0.54,0 -1.1,0.08l0,0l0.17,0.26l0,0q-0.14,0.18 -0.35,0.54l0,0l0,0q-0.21,0.37 -0.46,0.88l0,0l0,0q-0.25,0.51 -0.55,1.14l0,0l0,0q-0.3,0.63 -0.64,1.33l0,0l0,0q1.09,0 1.99,-0.21l0,0l0,0q0.89,-0.2 1.53,-0.56l0,0l0,0q0.64,-0.35 0.99,-0.83l0,0l0,0q0.36,-0.47 0.36,-1.02l0,0l0,0q0,-0.73 -0.49,-1.17l0,0l0,0q-0.49,-0.44 -1.45,-0.44zm18.46,1.51l0,0l0,0q0,0.67 -0.3,1.27l0,0l0,0q-0.3,0.59 -0.83,1.06l0,0l0,0q-0.53,0.47 -1.25,0.79l0,0l0,0q-0.71,0.33 -1.55,0.44l0,0l0,0q0.21,0.63 0.51,1.29l0,0l0,0q0.3,0.67 0.65,1.28l0,0l0,0q0.35,0.62 0.73,1.14l0,0l0,0q0.38,0.52 0.74,0.85l0,0l0,0q-0.07,0.14 -0.2,0.28l0,0l0,0q-0.14,0.14 -0.31,0.26l0,0l0,0q-0.18,0.12 -0.37,0.2l0,0l0,0q-0.18,0.07 -0.35,0.07l0,0l0,0q-0.31,0 -0.59,-0.29l0,0l0,0q-0.28,-0.29 -0.57,-0.93l0,0l0,0q-0.28,-0.64 -0.6,-1.65l0,0l0,0q-0.31,-1.02 -0.69,-2.45l0,0l0,0q-0.16,0 -0.31,0l0,0l0,0q-0.15,0 -0.24,-0.02l0,0l0,0q-0.1,-0.06 -0.21,-0.2l0,0l0,0q-0.38,0.81 -0.67,1.53l0,0l0,0q-0.29,0.71 -0.53,1.38l0,0l0,0q-0.23,0.66 -0.4,1.28l0,0l0,0q-0.18,0.63 -0.3,1.27l0,0l0,0q-0.48,-0.11 -0.83,-0.41l0,0l0,0q-0.35,-0.29 -0.66,-0.82l0,0l0,0q0.06,-0.13 0.12,-0.25l0,0l0,0q0.07,-0.12 0.16,-0.33l0,0l0,0q0.1,-0.22 0.25,-0.56l0,0l0,0q0.15,-0.33 0.39,-0.89l0,0l0,0q0.25,-0.56 0.59,-1.37l0,0l0,0q0.34,-0.82 0.83,-1.98l0,0l0,0q0.23,-0.52 0.39,-0.91l0,0l0,0q0.16,-0.39 0.28,-0.75l0,0l0,0q0.13,-0.35 0.23,-0.71l0,0l0,0q0.11,-0.36 0.22,-0.82l0,0l0,0q-0.64,0.22 -1.2,0.5l0,0l0,0q-0.55,0.27 -0.91,0.58l0,0l0,0q-0.13,-0.09 -0.26,-0.25l0,0l0,0q-0.13,-0.17 -0.25,-0.38l0,0l0,0q-0.11,-0.2 -0.19,-0.41l0,0l0,0q-0.09,-0.21 -0.1,-0.38l0,0l0,0q0.42,-0.28 1.03,-0.51l0,0l0,0q0.61,-0.24 1.29,-0.42l0,0l0,0q0.69,-0.17 1.4,-0.27l0,0l0,0q0.72,-0.1 1.33,-0.1l0,0l0,0q1.68,0 2.61,0.69l0,0l0,0q0.92,0.7 0.92,1.9zm-3.58,-1.44l0.17,0.27l0,0q-0.1,0.12 -0.31,0.5l0,0l0,0q-0.21,0.38 -0.49,0.9l0,0l0,0q-0.27,0.53 -0.57,1.14l0,0l0,0q-0.3,0.62 -0.58,1.22l0,0l0,0q1.05,0 1.93,-0.19l0,0l0,0q0.88,-0.2 1.53,-0.56l0,0l0,0q0.64,-0.35 1,-0.84l0,0l0,0q0.36,-0.48 0.36,-1.07l0,0l0,0q0,-0.7 -0.51,-1.07l0,0l0,0q-0.5,-0.37 -1.55,-0.37l0,0l0,0q-0.24,0 -0.48,0.02l0,0l0,0q-0.24,0.02 -0.5,0.05l0,0zm16.41,3.19l0,0l0,0q0.46,0 0.72,0.25l0,0l0,0q0.26,0.26 0.26,0.7l0,0l0,0q0,0.12 -0.03,0.23l0,0l0,0q-0.02,0.12 -0.04,0.21l0,0l0,0q-0.19,-0.03 -0.41,-0.05l0,0l0,0q-0.22,-0.02 -0.53,-0.02l0,0l0,0q-0.6,0 -1.22,0.1l0,0l0,0q-0.62,0.11 -1.18,0.18l0,0l0,0q-0.32,0.74 -0.58,1.43l0,0l0,0q-0.27,0.7 -0.46,1.27l0,0l0,0q-0.19,0.57 -0.29,0.99l0,0l0,0q-0.11,0.42 -0.12,0.63l0,0l0,0q1.13,-0.23 2.29,-0.4l0,0l0,0q1.15,-0.17 2.43,-0.25l0,0l0,0q0.15,0.23 0.25,0.51l0,0l0,0q0.11,0.28 0.11,0.61l0,0l0,0q0,0.08 0,0.18l0,0l0,0q0,0.1 -0.03,0.19l0,0l0,0q-0.39,-0.01 -0.82,-0.02l0,0l0,0q-0.44,0 -1.14,0l0,0l0,0q-0.46,0 -0.87,0.02l0,0l0,0q-0.42,0.02 -0.84,0.06l0,0l0,0q-0.42,0.04 -0.89,0.11l0,0l0,0q-0.46,0.07 -1.05,0.17l0,0l0,0q-0.65,-0.25 -1.25,-1.23l0,0l0,0q0.24,-0.51 0.67,-1.54l0,0l0,0q0.42,-1.02 1.08,-2.75l0,0l0,0q-0.63,-0.19 -0.82,-0.7l0,0l0,0q0.07,-0.07 0.4,-0.17l0,0l0,0q0.34,-0.11 0.83,-0.22l0,0l0,0q0.21,-0.54 0.35,-0.95l0,0l0,0q0.15,-0.41 0.26,-0.76l0,0l0,0q0.12,-0.36 0.21,-0.7l0,0l0,0q0.09,-0.35 0.17,-0.75l0,0l0,0q-0.49,-0.03 -0.77,-0.27l0,0l0,0q-0.28,-0.25 -0.28,-0.64l0,0l0,0q0,-0.11 0.04,-0.27l0,0l0,0q0.03,-0.15 0.07,-0.26l0,0l0,0q0.28,0.04 0.54,0.05l0,0l0,0q0.26,0.02 0.68,0.02l0,0l0,0q0.88,0 1.65,-0.05l0,0l0,0q0.77,-0.05 1.4,-0.11l0,0l0,0q0.62,-0.05 1.07,-0.1l0,0l0,0q0.45,-0.05 0.68,-0.05l0,0l0,0q0.33,0 0.58,0.33l0,0l0,0q0.25,0.34 0.38,0.96l0,0l0,0q-0.44,-0.05 -0.71,-0.06l0,0l0,0q-0.27,-0.01 -0.48,-0.01l0,0l0,0q-0.77,0 -1.41,0.07l0,0l0,0q-0.64,0.08 -1.23,0.16l0,0l0,0q-0.08,0.13 -0.19,0.33l0,0l0,0q-0.1,0.19 -0.27,0.54l0,0l0,0q-0.17,0.35 -0.41,0.88l0,0l0,0q-0.25,0.54 -0.6,1.33l0,0l0,0q0.54,-0.08 1,-0.13l0,0l0,0q0.47,-0.05 0.8,-0.05zm10.17,3.22l0,0l0,0q0,-0.98 0.23,-1.92l0,0l0,0q0.24,-0.95 0.66,-1.8l0,0l0,0q0.42,-0.84 1,-1.55l0,0l0,0q0.58,-0.71 1.27,-1.22l0,0l0,0q0.69,-0.52 1.48,-0.81l0,0l0,0q0.78,-0.29 1.61,-0.29l0,0l0,0q0.96,0 1.5,0.41l0,0l0,0q0.54,0.41 0.54,1.13l0,0l0,0q0,0.28 -0.08,0.58l0,0l0,0q-0.07,0.29 -0.22,0.58l0,0l0,0q-0.15,0.29 -0.34,0.55l0,0l0,0q-0.2,0.27 -0.44,0.46l0,0l0,0q-0.36,-0.05 -0.63,-0.33l0,0l0,0q-0.26,-0.27 -0.33,-0.63l0,0l0,0q0.49,-0.41 0.77,-0.85l0,0l0,0q0.29,-0.44 0.29,-0.8l0,0l0,0q0,-0.62 -0.77,-0.62l0,0l0,0q-0.32,0 -0.66,0.13l0,0l0,0q-0.35,0.14 -0.7,0.37l0,0l0,0q-0.35,0.24 -0.68,0.58l0,0l0,0q-0.32,0.33 -0.6,0.74l0,0l0,0q-1.95,2.8 -1.95,5.73l0,0l0,0q0,1.03 0.32,1.66l0,0l0,0q0.32,0.63 0.86,0.74l0,0l0,0q0.6,-0.14 1.52,-0.77l0,0l0,0q0.93,-0.63 2.02,-1.63l0,0l0,0q0.14,0.14 0.17,0.29l0,0l0,0q-0.41,0.53 -0.84,1.02l0,0l0,0q-0.44,0.49 -0.87,0.9l0,0l0,0q-0.42,0.4 -0.84,0.71l0,0l0,0q-0.41,0.31 -0.76,0.48l0,0l0,0q-1.73,-0.03 -2.63,-1l0,0l0,0q-0.9,-0.96 -0.9,-2.84zm15.31,1.95l0,0l0,0q0,-0.51 0.16,-1.31l0,0l0,0q0.16,-0.81 0.42,-1.74l0,0l0,0q0.26,-0.93 0.59,-1.9l0,0l0,0q0.34,-0.97 0.69,-1.83l0,0l0,0q0.35,-0.85 0.68,-1.5l0,0l0,0q0.34,-0.64 0.61,-0.92l0,0l0,0q0.14,0.01 0.37,0.11l0,0l0,0q0.23,0.09 0.47,0.21l0,0l0,0q0.23,0.13 0.43,0.28l0,0l0,0q0.2,0.14 0.25,0.27l0,0l0,0q-0.4,0.36 -0.8,1.1l0,0l0,0q-0.4,0.73 -0.77,1.67l0,0l0,0q-0.37,0.94 -0.7,1.98l0,0l0,0q-0.32,1.04 -0.56,2.02l0,0l0,0q-0.23,0.98 -0.37,1.82l0,0l0,0q-0.13,0.84 -0.13,1.36l0,0l0,0q0,0.24 0.04,0.3l0,0l0,0q-0.31,-0.02 -0.45,-0.11l0,0l0,0q-0.14,-0.09 -0.21,-0.19l0,0l0,0q-0.08,-0.11 -0.14,-0.21l0,0l0,0q-0.07,-0.11 -0.19,-0.17l0,0l0,0q-0.1,-0.04 -0.17,-0.19l0,0l0,0q-0.07,-0.16 -0.12,-0.34l0,0l0,0q-0.05,-0.19 -0.08,-0.39l0,0l0,0q-0.02,-0.2 -0.02,-0.32zm20.11,-8.64l0,0l0,0q0.05,0.24 0.07,0.33l0,0l0,0q0.02,0.09 0.02,0.24l0,0l0,0q0,0.47 -0.21,0.87l0,0l0,0q-0.2,0.39 -0.55,0.56l0,0l0,0q-0.28,-0.38 -0.68,-0.65l0,0l0,0q-0.41,-0.27 -0.89,-0.45l0,0l0,0q-0.49,-0.17 -1,-0.26l0,0l0,0q-0.52,-0.08 -1.01,-0.08l0,0l0,0q-0.49,0 -0.92,0.08l0,0l0,0q-0.43,0.07 -0.76,0.21l0,0l0,0q-0.32,0.13 -0.51,0.33l0,0l0,0q-0.19,0.19 -0.19,0.44l0,0l0,0q0.04,0.31 0.38,0.63l0,0l0,0q0.33,0.31 0.82,0.61l0,0l0,0q0.49,0.3 1.09,0.6l0,0l0,0q0.59,0.29 1.17,0.56l0,0l0,0q0.71,0.33 1.23,0.62l0,0l0,0q0.52,0.29 0.85,0.63l0,0l0,0q0.34,0.34 0.51,0.78l0,0l0,0q0.16,0.43 0.16,1.05l0,0l0,0q0,0.71 -0.23,1.34l0,0l0,0q-0.24,0.62 -0.7,1.08l0,0l0,0q-0.45,0.46 -1.1,0.72l0,0l0,0q-0.64,0.26 -1.44,0.26l0,0l0,0q-0.78,0 -1.69,-0.24l0,0l0,0q-0.91,-0.24 -1.7,-0.65l0,0l0,0q-0.79,-0.41 -1.32,-0.95l0,0l0,0q-0.52,-0.54 -0.52,-1.14l0,0l0,0q0,-0.28 0.16,-0.72l0,0l0,0q0.16,-0.43 0.58,-0.91l0,0l0,0q0.04,0.42 0.45,1l0,0l0,0q0.42,0.57 1.24,1.06l0,0l0,0q0.77,0.45 1.59,0.65l0,0l0,0q0.82,0.21 1.53,0.21l0,0l0,0q0.79,0 1.28,-0.2l0,0l0,0q0.49,-0.2 0.77,-0.47l0,0l0,0q0.28,-0.27 0.39,-0.55l0,0l0,0q0.11,-0.28 0.13,-0.45l0,0l0,0q-0.02,-0.28 -0.26,-0.54l0,0l0,0q-0.25,-0.26 -0.66,-0.5l0,0l0,0q-0.41,-0.25 -0.96,-0.5l0,0l0,0q-0.55,-0.25 -1.13,-0.5l0,0l0,0q-0.89,-0.4 -1.52,-0.74l0,0l0,0q-0.64,-0.34 -1.05,-0.7l0,0l0,0q-0.42,-0.36 -0.6,-0.75l0,0l0,0q-0.19,-0.39 -0.19,-0.89l0,0l0,0q0,-0.79 0.47,-1.49l0,0l0,0q0.48,-0.7 1.37,-1.06l0,0l0,0q0.45,-0.2 0.96,-0.28l0,0l0,0q0.51,-0.09 1,-0.09l0,0l0,0q0.93,0 1.81,0.26l0,0l0,0q0.88,0.25 1.76,0.64zm8.12,8.64l0,0l0,0q0,-0.51 0.16,-1.31l0,0l0,0q0.17,-0.81 0.42,-1.74l0,0l0,0q0.26,-0.93 0.6,-1.9l0,0l0,0q0.34,-0.97 0.69,-1.83l0,0l0,0q0.35,-0.85 0.68,-1.5l0,0l0,0q0.34,-0.64 0.6,-0.92l0,0l0,0q0.14,0.01 0.37,0.11l0,0l0,0q0.24,0.09 0.47,0.21l0,0l0,0q0.24,0.13 0.44,0.28l0,0l0,0q0.19,0.14 0.25,0.27l0,0l0,0q-0.41,0.36 -0.81,1.1l0,0l0,0q-0.39,0.73 -0.77,1.67l0,0l0,0q-0.37,0.94 -0.69,1.98l0,0l0,0q-0.32,1.04 -0.56,2.02l0,0l0,0q-0.24,0.98 -0.37,1.82l0,0l0,0q-0.13,0.84 -0.13,1.36l0,0l0,0q0,0.24 0.04,0.3l0,0l0,0q-0.31,-0.02 -0.45,-0.11l0,0l0,0q-0.14,-0.09 -0.22,-0.19l0,0l0,0q-0.07,-0.11 -0.14,-0.21l0,0l0,0q-0.06,-0.11 -0.18,-0.17l0,0l0,0q-0.1,-0.04 -0.17,-0.19l0,0l0,0q-0.07,-0.16 -0.12,-0.34l0,0l0,0q-0.05,-0.19 -0.08,-0.39l0,0l0,0q-0.03,-0.2 -0.03,-0.32zm17.45,-9.4l0,0l0,0q0.26,0.12 0.54,0.29l0,0l0,0q0.28,0.18 0.52,0.36l0,0l0,0q0.24,0.18 0.4,0.35l0,0l0,0q0.16,0.18 0.18,0.29l0,0l0,0q-0.24,-0.05 -0.48,-0.07l0,0l0,0q-0.24,-0.03 -0.43,-0.03l0,0l0,0q-0.63,0 -1.26,0.31l0,0l0,0q-0.62,0.31 -1.18,0.84l0,0l0,0q-0.56,0.53 -1.04,1.25l0,0l0,0q-0.47,0.71 -0.81,1.52l0,0l0,0q-0.35,0.82 -0.54,1.68l0,0l0,0q-0.2,0.87 -0.2,1.71l0,0l0,0q0,1.09 0.36,1.63l0,0l0,0q0.37,0.53 1.07,0.53l0,0l0,0q0.33,0 0.73,-0.13l0,0l0,0q0.39,-0.14 0.79,-0.38l0,0l0,0q0.41,-0.23 0.8,-0.57l0,0l0,0q0.39,-0.34 0.73,-0.74l0,0l0,0q0.49,-0.59 0.88,-1.34l0,0l0,0q0.39,-0.75 0.67,-1.59l0,0l0,0q0.27,-0.84 0.42,-1.73l0,0l0,0q0.14,-0.89 0.14,-1.74l0,0l0,0q0,-0.34 -0.01,-0.57l0,0l0,0q-0.01,-0.23 -0.03,-0.39l0,0l0,0q-0.03,-0.16 -0.04,-0.26l0,0l0,0q-0.01,-0.1 -0.03,-0.17l0,0l0,0q0.17,0.09 0.37,0.21l0,0l0,0q0.21,0.12 0.38,0.35l0,0l0,0q0.18,0.23 0.3,0.61l0,0l0,0q0.11,0.37 0.11,0.98l0,0l0,0q0,0.98 -0.23,1.92l0,0l0,0q-0.23,0.95 -0.64,1.8l0,0l0,0q-0.41,0.85 -0.97,1.6l0,0l0,0q-0.56,0.74 -1.21,1.3l0,0l0,0q-0.84,0.74 -1.79,1.15l0,0l0,0q-0.95,0.4 -1.83,0.4l0,0l0,0q-1.29,0 -1.97,-0.82l0,0l0,0q-0.68,-0.82 -0.68,-2.41l0,0l0,0q0,-0.86 0.19,-1.81l0,0l0,0q0.19,-0.95 0.53,-1.87l0,0l0,0q0.34,-0.93 0.82,-1.76l0,0l0,0q0.48,-0.83 1.04,-1.47l0,0l0,0q0.57,-0.64 1.22,-1.02l0,0l0,0q0.65,-0.37 1.34,-0.37l0,0l0,0q0.22,0 0.42,0.03l0,0l0,0q0.19,0.04 0.42,0.13zm11.91,11.26l0,0l0,0q-0.8,-0.24 -1.08,-0.45l0,0l0,0q-0.28,-0.22 -0.28,-0.6l0,0l0,0q0,-0.42 0.2,-1.18l0,0l0,0q0.2,-0.77 0.51,-1.7l0,0l0,0q0.32,-0.94 0.72,-1.96l0,0l0,0q0.41,-1.03 0.83,-1.96l0,0l0,0q0.42,-0.94 0.82,-1.72l0,0l0,0q0.4,-0.78 0.7,-1.21l0,0l-0.09,-0.59l0,0q0.19,0 0.54,0.1l0,0l0,0q0.35,0.1 0.71,0.24l0,0l0,0q0.36,0.14 0.63,0.28l0,0l0,0q0.27,0.15 0.3,0.25l0,0l0,0q-0.07,0.34 -0.11,1.02l0,0l0,0q-0.04,0.67 -0.04,1.44l0,0l0,0q0,1.53 0.11,2.99l0,0l0,0q0.12,1.47 0.56,2.98l0,0l0,0q0.22,-1.12 0.48,-2.23l0,0l0,0q0.26,-1.12 0.54,-2.13l0,0l0,0q0.28,-1.02 0.56,-1.89l0,0l0,0q0.28,-0.86 0.54,-1.52l0,0l0,0q0.26,-0.65 0.48,-1.02l0,0l0,0q0.23,-0.37 0.41,-0.4l0,0l0,0q0.15,0.03 0.33,0.12l0,0l0,0q0.19,0.09 0.35,0.22l0,0l0,0q0.17,0.13 0.31,0.28l0,0l0,0q0.14,0.15 0.23,0.31l0,0l0,0q-0.45,0.18 -0.89,0.85l0,0l0,0q-0.44,0.67 -0.84,1.63l0,0l0,0q-0.4,0.96 -0.75,2.08l0,0l0,0q-0.34,1.12 -0.6,2.21l0,0l0,0q-0.26,1.08 -0.4,2.01l0,0l0,0q-0.15,0.92 -0.16,1.48l0,0l0,0q0,0.03 0.01,0.04l0,0l0,0q-0.04,0.02 -0.09,0.02l0,0l0,0q-0.05,0 -0.09,0l0,0l0,0q-0.65,0 -1.14,-0.16l0,0l0,0q-0.5,-0.17 -0.65,-0.46l0,0l0,0q-0.3,-1.18 -0.49,-2.27l0,0l0,0q-0.2,-1.09 -0.33,-2.18l0,0l0,0q-0.14,-1.09 -0.21,-2.21l0,0l0,0q-0.08,-1.11 -0.12,-2.33l0,0l0,0q-0.27,0.42 -0.56,1.1l0,0l0,0q-0.3,0.68 -0.58,1.49l0,0l0,0q-0.28,0.81 -0.53,1.71l0,0l0,0q-0.26,0.9 -0.46,1.75l0,0l0,0q-0.2,0.85 -0.31,1.62l0,0l0,0q-0.11,0.76 -0.11,1.32l0,0l0,0q0,0.29 0.01,0.42l0,0l0,0q0,0.13 0.03,0.21zm26.28,0l0,0l0,0q-0.67,-0.2 -0.93,-0.39l0,0l0,0q-0.26,-0.2 -0.26,-0.49l0,0l0,0q0,-0.23 0.13,-0.63l0,0l0,0q0.12,-0.41 0.37,-0.96l0,0l0,0q0.24,-0.55 0.58,-1.23l0,0l0,0q0.35,-0.67 0.78,-1.44l0,0l0,0q-0.36,-0.01 -0.65,-0.02l0,0l0,0q-0.29,-0.01 -0.47,-0.01l0,0l0,0q0.09,-0.21 0.48,-0.36l0,0l0,0q0.39,-0.15 1.03,-0.27l0,0l0,0q0.55,-0.91 1.17,-1.73l0,0l0,0q0.63,-0.83 1.26,-1.52l0,0l0,0q0.63,-0.69 1.26,-1.22l0,0l0,0q0.63,-0.52 1.2,-0.83l0,0l0,0q0.01,-0.1 0.02,-0.17l0,0l0,0q0.01,-0.07 0.01,-0.1l0,0l0,0q0.19,0 0.52,0.1l0,0l0,0q0.33,0.1 0.65,0.24l0,0l0,0q0.31,0.14 0.56,0.28l0,0l0,0q0.24,0.15 0.27,0.25l0,0l0,0q-0.46,0.81 -0.91,2.43l0,0l0,0q-0.45,1.62 -0.74,3.87l0,0l0,0q-0.07,0.56 -0.12,1.27l0,0l0,0q-0.05,0.72 -0.05,1.6l0,0l0,0q0,0.31 0,0.63l0,0l0,0q0,0.32 0.03,0.67l0,0l0,0q-0.03,0.02 -0.06,0.02l0,0l0,0q-0.03,0 -0.11,0l0,0l0,0q-0.2,0 -0.45,-0.07l0,0l0,0q-0.26,-0.06 -0.51,-0.15l0,0l0,0q-0.24,-0.09 -0.42,-0.2l0,0l0,0q-0.17,-0.12 -0.22,-0.2l0,0l0,0q-0.01,-0.18 -0.01,-0.36l0,0l0,0q0,-0.17 0,-0.37l0,0l0,0q0,-0.87 0.06,-1.76l0,0l0,0q0.07,-0.9 0.22,-1.85l0,0l0,0q-0.2,-0.01 -0.52,-0.04l0,0l0,0q-0.32,-0.02 -0.72,-0.03l0,0l0,0q-0.4,-0.01 -0.85,-0.04l0,0l0,0q-0.46,-0.02 -0.89,-0.03l0,0l0,0q-0.34,0.63 -0.63,1.25l0,0l0,0q-0.3,0.63 -0.51,1.26l0,0l0,0q-0.23,0.67 -0.38,1.34l0,0l0,0q-0.15,0.67 -0.19,1.26zm5.4,-8.41l0,0l0,0q0.06,-0.2 0.14,-0.54l0,0l0,0q0.07,-0.35 0.14,-0.72l0,0l0,0q-0.35,0.12 -0.77,0.46l0,0l0,0q-0.43,0.33 -0.89,0.83l0,0l0,0q-0.45,0.5 -0.92,1.12l0,0l0,0q-0.47,0.62 -0.9,1.32l0,0l0,0q1.17,-0.09 2.67,-0.12l0,0l0,0q0.11,-0.59 0.25,-1.17l0,0l0,0q0.13,-0.58 0.28,-1.18zm11.2,8.41l0,0l0,0q-0.79,-0.24 -1.07,-0.45l0,0l0,0q-0.28,-0.22 -0.28,-0.6l0,0l0,0q0,-0.42 0.19,-1.18l0,0l0,0q0.2,-0.77 0.51,-1.7l0,0l0,0q0.32,-0.94 0.72,-1.96l0,0l0,0q0.41,-1.03 0.83,-1.96l0,0l0,0q0.42,-0.94 0.82,-1.72l0,0l0,0q0.4,-0.78 0.71,-1.21l0,0l-0.1,-0.59l0,0q0.19,0 0.54,0.1l0,0l0,0q0.35,0.1 0.71,0.24l0,0l0,0q0.36,0.14 0.63,0.28l0,0l0,0q0.27,0.15 0.3,0.25l0,0l0,0q-0.07,0.34 -0.11,1.02l0,0l0,0q-0.04,0.67 -0.04,1.44l0,0l0,0q0,1.53 0.12,2.99l0,0l0,0q0.12,1.47 0.55,2.98l0,0l0,0q0.22,-1.12 0.48,-2.23l0,0l0,0q0.26,-1.12 0.54,-2.13l0,0l0,0q0.28,-1.02 0.56,-1.89l0,0l0,0q0.28,-0.86 0.54,-1.52l0,0l0,0q0.26,-0.65 0.48,-1.02l0,0l0,0q0.23,-0.37 0.41,-0.4l0,0l0,0q0.15,0.03 0.34,0.12l0,0l0,0q0.18,0.09 0.35,0.22l0,0l0,0q0.16,0.13 0.3,0.28l0,0l0,0q0.14,0.15 0.23,0.31l0,0l0,0q-0.45,0.18 -0.89,0.85l0,0l0,0q-0.44,0.67 -0.84,1.63l0,0l0,0q-0.4,0.96 -0.74,2.08l0,0l0,0q-0.35,1.12 -0.6,2.21l0,0l0,0q-0.26,1.08 -0.41,2.01l0,0l0,0q-0.15,0.92 -0.16,1.48l0,0l0,0q0,0.03 0.01,0.04l0,0l0,0q-0.04,0.02 -0.09,0.02l0,0l0,0q-0.05,0 -0.09,0l0,0l0,0q-0.64,0 -1.14,-0.16l0,0l0,0q-0.5,-0.17 -0.65,-0.46l0,0l0,0q-0.3,-1.18 -0.49,-2.27l0,0l0,0q-0.2,-1.09 -0.33,-2.18l0,0l0,0q-0.13,-1.09 -0.21,-2.21l0,0l0,0q-0.08,-1.11 -0.12,-2.33l0,0l0,0q-0.27,0.42 -0.56,1.1l0,0l0,0q-0.29,0.68 -0.57,1.49l0,0l0,0q-0.28,0.81 -0.54,1.71l0,0l0,0q-0.26,0.9 -0.46,1.75l0,0l0,0q-0.19,0.85 -0.31,1.62l0,0l0,0q-0.11,0.76 -0.11,1.32l0,0l0,0q0,0.29 0.01,0.42l0,0l0,0q0.01,0.13 0.03,0.21zm16.26,-1.79l0,0l0,0q0.21,-0.46 0.5,-1.19l0,0l0,0q0.3,-0.73 0.62,-1.58l0,0l0,0q0.32,-0.84 0.66,-1.73l0,0l0,0q0.33,-0.89 0.63,-1.69l0,0l0,0q0.29,-0.8 0.51,-1.43l0,0l0,0q0.21,-0.63 0.31,-0.96l0,0l0,0q-0.88,0.36 -1.51,1.1l0,0l0,0q-0.63,0.74 -0.95,1.86l0,0l0,0q-0.32,-0.11 -0.59,-0.4l0,0l0,0q-0.27,-0.28 -0.35,-0.72l0,0l0,0q0.14,-0.64 0.53,-1.17l0,0l0,0q0.38,-0.53 0.97,-0.91l0,0l0,0q0.59,-0.38 1.36,-0.58l0,0l0,0q0.77,-0.21 1.65,-0.21l0,0l0,0q1.12,0 2.06,0.33l0,0l0,0q0.93,0.33 1.61,0.92l0,0l0,0q0.67,0.59 1.05,1.41l0,0l0,0q0.37,0.83 0.37,1.84l0,0l0,0q0,1.37 -0.5,2.62l0,0l0,0q-0.5,1.24 -1.36,2.19l0,0l0,0q-0.87,0.96 -2,1.52l0,0l0,0q-1.13,0.57 -2.38,0.57l0,0l0,0q-1.15,0 -1.97,-0.45l0,0l0,0q-0.82,-0.46 -1.22,-1.34zm4.94,-8.91l0,0l0,0q-0.7,0 -1.33,0.2l0,0l0,0q0.62,0.22 1.02,0.47l0,0l0,0q0.41,0.24 0.56,0.38l0,0l0,0q-0.11,0.16 -0.33,0.55l0,0l0,0q-0.21,0.39 -0.5,0.95l0,0l0,0q-0.29,0.56 -0.61,1.23l0,0l0,0q-0.32,0.66 -0.63,1.36l0,0l0,0q-0.8,1.78 -1.15,2.8l0,0l0,0q-0.36,1.02 -0.36,1.42l0,0l0,0q0.19,0.07 0.47,0.09l0,0l0,0q0.28,0.03 0.61,0.03l0,0l0,0q1.13,0 2.15,-0.52l0,0l0,0q1.01,-0.53 1.77,-1.41l0,0l0,0q0.77,-0.88 1.21,-2.05l0,0l0,0q0.44,-1.17 0.44,-2.46l0,0l0,0q0,-1.44 -0.9,-2.24l0,0l0,0q-0.89,-0.8 -2.42,-0.8zm22.97,10.7l0,0l0,0q-0.67,-0.2 -0.93,-0.39l0,0l0,0q-0.26,-0.2 -0.26,-0.49l0,0l0,0q0,-0.23 0.13,-0.63l0,0l0,0q0.13,-0.41 0.37,-0.96l0,0l0,0q0.25,-0.55 0.59,-1.23l0,0l0,0q0.34,-0.67 0.78,-1.44l0,0l0,0q-0.37,-0.01 -0.65,-0.02l0,0l0,0q-0.29,-0.01 -0.47,-0.01l0,0l0,0q0.08,-0.21 0.47,-0.36l0,0l0,0q0.39,-0.15 1.04,-0.27l0,0l0,0q0.54,-0.91 1.17,-1.73l0,0l0,0q0.62,-0.83 1.25,-1.52l0,0l0,0q0.63,-0.69 1.26,-1.22l0,0l0,0q0.63,-0.52 1.2,-0.83l0,0l0,0q0.02,-0.1 0.03,-0.17l0,0l0,0q0,-0.07 0,-0.1l0,0l0,0q0.2,0 0.53,0.1l0,0l0,0q0.33,0.1 0.64,0.24l0,0l0,0q0.32,0.14 0.56,0.28l0,0l0,0q0.25,0.15 0.27,0.25l0,0l0,0q-0.46,0.81 -0.91,2.43l0,0l0,0q-0.44,1.62 -0.74,3.87l0,0l0,0q-0.07,0.56 -0.12,1.27l0,0l0,0q-0.05,0.72 -0.05,1.6l0,0l0,0q0,0.31 0,0.63l0,0l0,0q0,0.32 0.03,0.67l0,0l0,0q-0.03,0.02 -0.05,0.02l0,0l0,0q-0.03,0 -0.12,0l0,0l0,0q-0.19,0 -0.45,-0.07l0,0l0,0q-0.26,-0.06 -0.5,-0.15l0,0l0,0q-0.25,-0.09 -0.42,-0.2l0,0l0,0q-0.18,-0.12 -0.22,-0.2l0,0l0,0q-0.02,-0.18 -0.02,-0.36l0,0l0,0q0,-0.17 0,-0.37l0,0l0,0q0,-0.87 0.07,-1.76l0,0l0,0q0.06,-0.9 0.21,-1.85l0,0l0,0q-0.19,-0.01 -0.51,-0.04l0,0l0,0q-0.33,-0.02 -0.72,-0.03l0,0l0,0q-0.4,-0.01 -0.86,-0.04l0,0l0,0q-0.45,-0.02 -0.89,-0.03l0,0l0,0q-0.33,0.63 -0.63,1.25l0,0l0,0q-0.29,0.63 -0.5,1.26l0,0l0,0q-0.24,0.67 -0.39,1.34l0,0l0,0q-0.14,0.67 -0.19,1.26zm5.41,-8.41l0,0l0,0q0.05,-0.2 0.13,-0.54l0,0l0,0q0.08,-0.35 0.15,-0.72l0,0l0,0q-0.35,0.12 -0.78,0.46l0,0l0,0q-0.43,0.33 -0.88,0.83l0,0l0,0q-0.46,0.5 -0.92,1.12l0,0l0,0q-0.47,0.62 -0.91,1.32l0,0l0,0q1.18,-0.09 2.68,-0.12l0,0l0,0q0.11,-0.59 0.24,-1.17l0,0l0,0q0.13,-0.58 0.29,-1.18zm29.82,-0.2l0,0l0,0q0,0.77 -0.39,1.47l0,0l0,0q-0.38,0.7 -1.03,1.22l0,0l0,0q-0.65,0.53 -1.53,0.84l0,0l0,0q-0.87,0.31 -1.85,0.31l0,0l0,0q-0.35,0 -0.56,-0.09l0,0l0,0q-0.2,-0.1 -0.45,-0.36l0,0l0,0q-0.7,1.52 -1.14,2.8l0,0l0,0q-0.44,1.29 -0.7,2.49l0,0l0,0q-0.53,-0.13 -0.86,-0.44l0,0l0,0q-0.34,-0.32 -0.62,-0.79l0,0l0,0q0.14,-0.27 0.34,-0.7l0,0l0,0q0.19,-0.44 0.47,-1.07l0,0l0,0q0.28,-0.64 0.65,-1.53l0,0l0,0q0.37,-0.89 0.88,-2.08l0,0l0,0q0.22,-0.54 0.39,-0.95l0,0l0,0q0.17,-0.41 0.29,-0.76l0,0l0,0q0.13,-0.36 0.24,-0.71l0,0l0,0q0.1,-0.35 0.21,-0.77l0,0l0,0q-0.66,0.21 -1.21,0.49l0,0l0,0q-0.55,0.28 -0.92,0.59l0,0l0,0q-0.12,-0.09 -0.25,-0.25l0,0l0,0q-0.14,-0.17 -0.25,-0.38l0,0l0,0q-0.11,-0.2 -0.2,-0.41l0,0l0,0q-0.08,-0.21 -0.09,-0.38l0,0l0,0q0.4,-0.28 1,-0.51l0,0l0,0q0.61,-0.24 1.29,-0.42l0,0l0,0q0.69,-0.17 1.42,-0.27l0,0l0,0q0.74,-0.1 1.41,-0.1l0,0l0,0q0.8,0 1.44,0.2l0,0l0,0q0.65,0.21 1.09,0.57l0,0l0,0q0.45,0.37 0.69,0.87l0,0l0,0q0.24,0.5 0.24,1.12zm-2.49,-1.68l0,0l0,0q-0.54,0 -1.1,0.08l0,0l0.17,0.26l0,0q-0.14,0.18 -0.35,0.54l0,0l0,0q-0.21,0.37 -0.46,0.88l0,0l0,0q-0.25,0.51 -0.55,1.14l0,0l0,0q-0.3,0.63 -0.64,1.33l0,0l0,0q1.09,0 1.99,-0.21l0,0l0,0q0.89,-0.2 1.53,-0.56l0,0l0,0q0.64,-0.35 1,-0.83l0,0l0,0q0.35,-0.47 0.35,-1.02l0,0l0,0q0,-0.73 -0.49,-1.17l0,0l0,0q-0.49,-0.44 -1.45,-0.44zm14.4,8.41l0,0l0,0q0,-0.58 0.2,-1.51l0,0l0,0q0.19,-0.92 0.52,-1.97l0,0l0,0q-0.93,0.07 -1.86,0.18l0,0l0,0q-0.93,0.11 -1.62,0.13l0,0l0,0q-0.63,1.47 -1,2.7l0,0l0,0q-0.37,1.24 -0.58,2.42l0,0l0,0q-0.53,-0.13 -0.88,-0.44l0,0l0,0q-0.35,-0.32 -0.64,-0.79l0,0l0,0q0.11,-0.23 0.26,-0.58l0,0l0,0q0.14,-0.35 0.35,-0.84l0,0l0,0q0.2,-0.5 0.46,-1.16l0,0l0,0q0.26,-0.67 0.59,-1.55l0,0l0,0q-0.46,-0.2 -0.61,-0.55l0,0l0,0q0.07,-0.05 0.31,-0.12l0,0l0,0q0.25,-0.06 0.61,-0.13l0,0l0.18,-0.45l0,0q0.3,-0.75 0.49,-1.27l0,0l0,0q0.18,-0.52 0.32,-1.02l0,0l0,0q0.13,-0.49 0.25,-1.1l0,0l0,0q0.12,-0.6 0.29,-1.52l0,0l0,0q0.58,0.11 1.07,0.52l0,0l0,0q0.48,0.4 0.83,0.98l0,0l0,0q-0.13,0.16 -0.31,0.5l0,0l0,0q-0.18,0.34 -0.4,0.8l0,0l0,0q-0.21,0.47 -0.47,1.05l0,0l0,0q-0.25,0.59 -0.54,1.23l0,0l0,0q0.87,-0.11 1.76,-0.21l0,0l0,0q0.88,-0.1 1.57,-0.14l0,0l0,0q0.25,-0.73 0.53,-1.42l0,0l0,0q0.27,-0.69 0.53,-1.27l0,0l0,0q0.27,-0.57 0.52,-1.01l0,0l0,0q0.24,-0.43 0.44,-0.64l0,0l0,0q0.14,0.01 0.37,0.11l0,0l0,0q0.23,0.09 0.47,0.21l0,0l0,0q0.23,0.13 0.43,0.28l0,0l0,0q0.2,0.14 0.27,0.27l0,0l0,0q-0.26,0.24 -0.51,0.61l0,0l0,0q-0.25,0.38 -0.49,0.87l0,0l0,0q-0.25,0.49 -0.49,1.07l0,0l0,0q-0.24,0.57 -0.45,1.19l0,0l0,0q0.28,0.25 0.28,0.63l0,0l0,0q0,0.26 -0.11,0.49l0,0l0,0q-0.12,-0.03 -0.25,-0.04l0,0l0,0q-0.13,-0.01 -0.27,-0.02l0,0l0,0q-0.23,0.76 -0.43,1.5l0,0l0,0q-0.2,0.74 -0.33,1.41l0,0l0,0q-0.13,0.67 -0.21,1.23l0,0l0,0q-0.08,0.56 -0.08,0.94l0,0l0,0q0,0.14 0.01,0.23l0,0l0,0q0.01,0.08 0.02,0.14l0,0l0,0q-0.31,-0.02 -0.45,-0.11l0,0l0,0q-0.14,-0.09 -0.21,-0.19l0,0l0,0q-0.07,-0.11 -0.12,-0.21l0,0l0,0q-0.06,-0.11 -0.18,-0.17l0,0l0,0q-0.1,-0.04 -0.19,-0.19l0,0l0,0q-0.08,-0.16 -0.14,-0.35l0,0l0,0q-0.05,-0.2 -0.08,-0.39l0,0l0,0q-0.03,-0.2 -0.03,-0.33zm17.45,-9.38l0,0l0,0q0.26,0.12 0.54,0.29l0,0l0,0q0.28,0.18 0.52,0.36l0,0l0,0q0.24,0.18 0.4,0.35l0,0l0,0q0.16,0.18 0.17,0.29l0,0l0,0q-0.23,-0.05 -0.47,-0.07l0,0l0,0q-0.24,-0.03 -0.44,-0.03l0,0l0,0q-0.63,0 -1.25,0.31l0,0l0,0q-0.62,0.31 -1.18,0.84l0,0l0,0q-0.56,0.53 -1.04,1.25l0,0l0,0q-0.47,0.71 -0.82,1.52l0,0l0,0q-0.34,0.82 -0.54,1.68l0,0l0,0q-0.19,0.87 -0.19,1.71l0,0l0,0q0,1.09 0.36,1.63l0,0l0,0q0.37,0.53 1.07,0.53l0,0l0,0q0.33,0 0.72,-0.13l0,0l0,0q0.4,-0.14 0.8,-0.38l0,0l0,0q0.41,-0.23 0.8,-0.57l0,0l0,0q0.39,-0.34 0.73,-0.74l0,0l0,0q0.49,-0.59 0.88,-1.34l0,0l0,0q0.39,-0.75 0.67,-1.59l0,0l0,0q0.27,-0.84 0.42,-1.73l0,0l0,0q0.14,-0.89 0.14,-1.74l0,0l0,0q0,-0.34 -0.01,-0.57l0,0l0,0q-0.02,-0.23 -0.04,-0.39l0,0l0,0q-0.02,-0.16 -0.03,-0.26l0,0l0,0q-0.02,-0.1 -0.03,-0.17l0,0l0,0q0.17,0.09 0.37,0.21l0,0l0,0q0.2,0.12 0.38,0.35l0,0l0,0q0.17,0.23 0.29,0.61l0,0l0,0q0.12,0.37 0.12,0.98l0,0l0,0q0,0.98 -0.23,1.92l0,0l0,0q-0.23,0.95 -0.64,1.8l0,0l0,0q-0.42,0.85 -0.98,1.6l0,0l0,0q-0.56,0.74 -1.2,1.3l0,0l0,0q-0.84,0.74 -1.79,1.15l0,0l0,0q-0.95,0.4 -1.84,0.4l0,0l0,0q-1.28,0 -1.96,-0.82l0,0l0,0q-0.68,-0.82 -0.68,-2.41l0,0l0,0q0,-0.86 0.19,-1.81l0,0l0,0q0.19,-0.95 0.53,-1.87l0,0l0,0q0.34,-0.93 0.82,-1.76l0,0l0,0q0.47,-0.83 1.04,-1.47l0,0l0,0q0.57,-0.64 1.22,-1.02l0,0l0,0q0.65,-0.37 1.34,-0.37l0,0l0,0q0.22,0 0.42,0.03l0,0l0,0q0.19,0.04 0.42,0.13zm12.76,1.71l0,0l0,0q-0.56,0 -0.86,-0.31l0,0l0,0q-0.3,-0.32 -0.3,-0.77l0,0l0,0q0,-0.11 0.04,-0.26l0,0l0,0q0.03,-0.16 0.09,-0.27l0,0l0,0q0.18,0.09 0.54,0.12l0,0l0,0q0.35,0.04 0.83,0.04l0,0l0,0q0.71,0 1.62,-0.07l0,0l0,0q0.9,-0.06 1.73,-0.13l0,0l0,0q0.82,-0.07 1.45,-0.13l0,0l0,0q0.63,-0.07 0.81,-0.07l0,0l0,0q0.52,0 0.75,0.39l0,0l0,0q0.23,0.38 0.35,1.03l0,0l0,0q-0.37,-0.03 -0.72,-0.05l0,0l0,0q-0.36,-0.02 -0.61,-0.02l0,0l0,0q-0.45,0 -0.91,0.03l0,0l0,0q-0.45,0.02 -0.91,0.08l0,0l0,0q-0.2,0.41 -0.44,0.96l0,0l0,0q-0.24,0.55 -0.47,1.15l0,0l0,0q-0.23,0.61 -0.44,1.2l0,0l0,0q-0.21,0.6 -0.36,1.07l0,0l0,0q-0.31,0.93 -0.54,1.71l0,0l0,0q-0.23,0.78 -0.41,1.46l0,0l0,0q-0.17,0.68 -0.3,1.3l0,0l0,0q-0.12,0.61 -0.22,1.2l0,0l0,0q-0.94,-0.14 -1.57,-1.17l0,0l0,0q0.11,-0.44 0.27,-0.95l0,0l0,0q0.16,-0.51 0.38,-1.16l0,0l0,0q0.22,-0.65 0.51,-1.48l0,0l0,0q0.3,-0.82 0.67,-1.87l0,0l0,0q0.14,-0.4 0.3,-0.82l0,0l0,0q0.15,-0.43 0.3,-0.85l0,0l0,0q0.15,-0.42 0.27,-0.81l0,0l0,0q0.11,-0.39 0.2,-0.72l0,0l0,0q-0.59,0.07 -1.11,0.12l0,0l0,0q-0.53,0.05 -0.94,0.05zm18.92,-1.71l0,0l0,0q0.26,0.12 0.54,0.29l0,0l0,0q0.28,0.18 0.52,0.36l0,0l0,0q0.24,0.18 0.4,0.35l0,0l0,0q0.16,0.18 0.18,0.29l0,0l0,0q-0.24,-0.05 -0.48,-0.07l0,0l0,0q-0.24,-0.03 -0.43,-0.03l0,0l0,0q-0.63,0 -1.26,0.31l0,0l0,0q-0.62,0.31 -1.18,0.84l0,0l0,0q-0.56,0.53 -1.04,1.25l0,0l0,0q-0.47,0.71 -0.81,1.52l0,0l0,0q-0.35,0.82 -0.54,1.68l0,0l0,0q-0.2,0.87 -0.2,1.71l0,0l0,0q0,1.09 0.36,1.63l0,0l0,0q0.37,0.53 1.07,0.53l0,0l0,0q0.33,0 0.73,-0.13l0,0l0,0q0.39,-0.14 0.79,-0.38l0,0l0,0q0.41,-0.23 0.8,-0.57l0,0l0,0q0.39,-0.34 0.73,-0.74l0,0l0,0q0.49,-0.59 0.88,-1.34l0,0l0,0q0.39,-0.75 0.67,-1.59l0,0l0,0q0.27,-0.84 0.42,-1.73l0,0l0,0q0.14,-0.89 0.14,-1.74l0,0l0,0q0,-0.34 -0.01,-0.57l0,0l0,0q-0.01,-0.23 -0.03,-0.39l0,0l0,0q-0.03,-0.16 -0.04,-0.26l0,0l0,0q-0.01,-0.1 -0.03,-0.17l0,0l0,0q0.17,0.09 0.37,0.21l0,0l0,0q0.21,0.12 0.38,0.35l0,0l0,0q0.18,0.23 0.3,0.61l0,0l0,0q0.11,0.37 0.11,0.98l0,0l0,0q0,0.98 -0.23,1.92l0,0l0,0q-0.23,0.95 -0.64,1.8l0,0l0,0q-0.41,0.85 -0.97,1.6l0,0l0,0q-0.56,0.74 -1.21,1.3l0,0l0,0q-0.84,0.74 -1.79,1.15l0,0l0,0q-0.95,0.4 -1.83,0.4l0,0l0,0q-1.29,0 -1.97,-0.82l0,0l0,0q-0.68,-0.82 -0.68,-2.41l0,0l0,0q0,-0.86 0.19,-1.81l0,0l0,0q0.19,-0.95 0.53,-1.87l0,0l0,0q0.34,-0.93 0.82,-1.76l0,0l0,0q0.48,-0.83 1.04,-1.47l0,0l0,0q0.57,-0.64 1.22,-1.02l0,0l0,0q0.65,-0.37 1.34,-0.37l0,0l0,0q0.22,0 0.42,0.03l0,0l0,0q0.19,0.04 0.42,0.13zm11.91,11.26l0,0l0,0q-0.8,-0.24 -1.08,-0.45l0,0l0,0q-0.28,-0.22 -0.28,-0.6l0,0l0,0q0,-0.42 0.2,-1.18l0,0l0,0q0.2,-0.77 0.51,-1.7l0,0l0,0q0.32,-0.94 0.72,-1.96l0,0l0,0q0.41,-1.03 0.83,-1.96l0,0l0,0q0.42,-0.94 0.82,-1.72l0,0l0,0q0.4,-0.78 0.7,-1.21l0,0l-0.09,-0.59l0,0q0.19,0 0.54,0.1l0,0l0,0q0.35,0.1 0.71,0.24l0,0l0,0q0.36,0.14 0.63,0.28l0,0l0,0q0.27,0.15 0.3,0.25l0,0l0,0q-0.07,0.34 -0.11,1.02l0,0l0,0q-0.04,0.67 -0.04,1.44l0,0l0,0q0,1.53 0.12,2.99l0,0l0,0q0.11,1.47 0.55,2.98l0,0l0,0q0.22,-1.12 0.48,-2.23l0,0l0,0q0.26,-1.12 0.54,-2.13l0,0l0,0q0.28,-1.02 0.56,-1.89l0,0l0,0q0.28,-0.86 0.54,-1.52l0,0l0,0q0.26,-0.65 0.48,-1.02l0,0l0,0q0.23,-0.37 0.41,-0.4l0,0l0,0q0.15,0.03 0.33,0.12l0,0l0,0q0.19,0.09 0.35,0.22l0,0l0,0q0.17,0.13 0.31,0.28l0,0l0,0q0.14,0.15 0.23,0.31l0,0l0,0q-0.45,0.18 -0.89,0.85l0,0l0,0q-0.44,0.67 -0.84,1.63l0,0l0,0q-0.4,0.96 -0.74,2.08l0,0l0,0q-0.35,1.12 -0.61,2.21l0,0l0,0q-0.26,1.08 -0.4,2.01l0,0l0,0q-0.15,0.92 -0.16,1.48l0,0l0,0q0,0.03 0.01,0.04l0,0l0,0q-0.04,0.02 -0.09,0.02l0,0l0,0q-0.05,0 -0.09,0l0,0l0,0q-0.65,0 -1.14,-0.16l0,0l0,0q-0.5,-0.17 -0.65,-0.46l0,0l0,0q-0.3,-1.18 -0.49,-2.27l0,0l0,0q-0.2,-1.09 -0.33,-2.18l0,0l0,0q-0.14,-1.09 -0.21,-2.21l0,0l0,0q-0.08,-1.11 -0.12,-2.33l0,0l0,0q-0.27,0.42 -0.56,1.1l0,0l0,0q-0.3,0.68 -0.58,1.49l0,0l0,0q-0.28,0.81 -0.53,1.71l0,0l0,0q-0.26,0.9 -0.46,1.75l0,0l0,0q-0.2,0.85 -0.31,1.62l0,0l0,0q-0.11,0.76 -0.11,1.32l0,0l0,0q0,0.29 0.01,0.42l0,0l0,0q0,0.13 0.03,0.21zm35.3,-8.78l0,0l0,0q0,0.87 -0.48,1.55l0,0l0,0q-0.48,0.68 -1.3,1.13l0,0l0,0q0.53,0.36 0.85,0.89l0,0l0,0q0.31,0.52 0.31,1.15l0,0l0,0q0,0.76 -0.45,1.49l0,0l0,0q-0.46,0.74 -1.22,1.3l0,0l0,0q-0.75,0.57 -1.72,0.92l0,0l0,0q-0.96,0.35 -1.97,0.35l0,0l0,0q-1.09,0 -1.91,-0.41l0,0l0,0q-0.82,-0.42 -1.28,-1.17l0,0l0,0q0.14,-0.42 0.37,-1.04l0,0l0,0q0.23,-0.63 0.51,-1.32l0,0l0,0q0.28,-0.69 0.57,-1.38l0,0l0,0q0.28,-0.69 0.53,-1.23l0,0l0,0q0.54,-1.19 0.96,-1.98l0,0l0,0q0.42,-0.78 0.77,-1.24l0,0l0,0q-0.77,0.24 -1.4,0.54l0,0l0,0q-0.63,0.3 -0.93,0.58l0,0l0,0q-0.12,-0.09 -0.26,-0.25l0,0l0,0q-0.13,-0.17 -0.25,-0.38l0,0l0,0q-0.12,-0.2 -0.2,-0.41l0,0l0,0q-0.07,-0.21 -0.09,-0.38l0,0l0,0q0.37,-0.25 0.95,-0.48l0,0l0,0q0.58,-0.23 1.27,-0.4l0,0l0,0q0.68,-0.17 1.4,-0.26l0,0l0,0q0.72,-0.1 1.38,-0.1l0,0l0,0q1.68,0 2.63,0.67l0,0l0,0q0.96,0.67 0.96,1.86zm-5.34,3.35l0,0l0,0q-0.26,-0.13 -0.49,-0.38l0,0l0,0q-0.32,0.71 -0.61,1.4l0,0l0,0q-0.28,0.69 -0.51,1.27l0,0l0,0q-0.22,0.59 -0.36,1.03l0,0l0,0q-0.14,0.43 -0.16,0.63l0,0l0,0q0.2,0.11 0.47,0.16l0,0l0,0q0.28,0.06 0.68,0.06l0,0l0,0q0.95,0 1.82,-0.27l0,0l0,0q0.87,-0.26 1.53,-0.72l0,0l0,0q0.66,-0.45 1.05,-1.04l0,0l0,0q0.39,-0.59 0.39,-1.23l0,0l0,0q0,-0.93 -0.8,-1.33l0,0l0,0q-1.09,0.45 -2.46,0.45l0,0l0,0q-0.2,0 -0.3,0l0,0l0,0q-0.11,0 -0.25,-0.03zm2.72,-4.86l0,0l0,0q-0.3,0 -0.63,0.03l0,0l0,0q-0.32,0.04 -0.69,0.11l0,0l0,0q0.06,0.06 0.09,0.12l0,0l0,0q0.04,0.06 0.07,0.13l0,0l0,0q-0.13,0.17 -0.31,0.49l0,0l0,0q-0.18,0.32 -0.41,0.75l0,0l0,0q-0.22,0.43 -0.47,0.95l0,0l0,0q-0.24,0.51 -0.49,1.06l0,0l0,0q0.23,-0.06 0.58,-0.09l0,0l0,0q0.34,-0.04 0.68,-0.04l0,0l0,0q0.18,0 0.35,0.02l0,0l0,0q0.18,0.01 0.35,0.04l0,0l0,0q0.67,-0.11 1.21,-0.33l0,0l0,0q0.54,-0.22 0.93,-0.5l0,0l0,0q0.39,-0.29 0.6,-0.64l0,0l0,0q0.21,-0.35 0.21,-0.74l0,0l0,0q0,-0.67 -0.53,-1.02l0,0l0,0q-0.53,-0.34 -1.54,-0.34zm15.24,8.43l0,0l0,0q0.35,0.6 0.35,1.16l0,0l0,0q0,0.13 -0.02,0.23l0,0l0,0q-0.02,0.11 -0.05,0.22l0,0l0,0q-0.23,-0.03 -0.49,-0.04l0,0l0,0q-0.26,-0.02 -0.54,-0.02l0,0l0,0q-0.34,0 -0.68,0.02l0,0l0,0q-0.34,0.02 -0.76,0.07l0,0l0,0q-0.42,0.04 -0.94,0.11l0,0l0,0q-0.52,0.07 -1.21,0.18l0,0l0,0q-0.32,-0.11 -0.64,-0.44l0,0l0,0q-0.32,-0.33 -0.6,-0.79l0,0l0,0q0.14,-0.31 0.35,-0.77l0,0l0,0q0.21,-0.45 0.49,-1.1l0,0l0,0q0.28,-0.65 0.62,-1.53l0,0l0,0q0.34,-0.87 0.74,-2.02l0,0l0,0q0.25,-0.76 0.43,-1.33l0,0l0,0q0.18,-0.57 0.33,-1.11l0,0l0,0q0.15,-0.54 0.29,-1.13l0,0l0,0q0.14,-0.59 0.3,-1.36l0,0l0,0q0.56,0.11 0.98,0.41l0,0l0,0q0.41,0.31 0.79,0.87l0,0l0,0q-0.11,0.18 -0.3,0.58l0,0l0,0q-0.18,0.41 -0.42,0.99l0,0l0,0q-0.25,0.58 -0.54,1.32l0,0l0,0q-0.3,0.73 -0.62,1.57l0,0l0,0q-0.31,0.83 -0.6,1.56l0,0l0,0q-0.29,0.72 -0.52,1.31l0,0l0,0q-0.24,0.59 -0.38,1.01l0,0l0,0q-0.14,0.42 -0.14,0.63l0,0l0,0q0.23,-0.01 0.41,-0.03l0,0l0,0q0.18,-0.01 0.38,-0.05l0,0l0,0q0.19,-0.03 0.43,-0.08l0,0l0,0q0.23,-0.05 0.55,-0.13l0,0l0,0q0.28,-0.07 0.52,-0.12l0,0l0,0q0.23,-0.05 0.47,-0.09l0,0l0,0q0.23,-0.03 0.47,-0.05l0,0l0,0q0.25,-0.02 0.55,-0.05zm9.43,1.86l0,0l0,0q-0.68,-0.2 -0.93,-0.39l0,0l0,0q-0.26,-0.2 -0.26,-0.49l0,0l0,0q0,-0.23 0.12,-0.63l0,0l0,0q0.13,-0.41 0.37,-0.96l0,0l0,0q0.25,-0.55 0.59,-1.23l0,0l0,0q0.34,-0.67 0.78,-1.44l0,0l0,0q-0.37,-0.01 -0.65,-0.02l0,0l0,0q-0.29,-0.01 -0.47,-0.01l0,0l0,0q0.08,-0.21 0.47,-0.36l0,0l0,0q0.4,-0.15 1.04,-0.27l0,0l0,0q0.55,-0.91 1.17,-1.73l0,0l0,0q0.62,-0.83 1.25,-1.52l0,0l0,0q0.63,-0.69 1.26,-1.22l0,0l0,0q0.63,-0.52 1.21,-0.83l0,0l0,0q0.01,-0.1 0.02,-0.17l0,0l0,0q0,-0.07 0,-0.1l0,0l0,0q0.2,0 0.53,0.1l0,0l0,0q0.33,0.1 0.64,0.24l0,0l0,0q0.32,0.14 0.56,0.28l0,0l0,0q0.25,0.15 0.28,0.25l0,0l0,0q-0.47,0.81 -0.91,2.43l0,0l0,0q-0.45,1.62 -0.75,3.87l0,0l0,0q-0.07,0.56 -0.11,1.27l0,0l0,0q-0.05,0.72 -0.05,1.6l0,0l0,0q0,0.31 0,0.63l0,0l0,0q0,0.32 0.02,0.67l0,0l0,0q-0.02,0.02 -0.05,0.02l0,0l0,0q-0.03,0 -0.11,0l0,0l0,0q-0.2,0 -0.46,-0.07l0,0l0,0q-0.26,-0.06 -0.5,-0.15l0,0l0,0q-0.25,-0.09 -0.42,-0.2l0,0l0,0q-0.18,-0.12 -0.22,-0.2l0,0l0,0q-0.01,-0.18 -0.01,-0.36l0,0l0,0q0,-0.17 0,-0.37l0,0l0,0q0,-0.87 0.06,-1.76l0,0l0,0q0.06,-0.9 0.22,-1.85l0,0l0,0q-0.2,-0.01 -0.52,-0.04l0,0l0,0q-0.32,-0.02 -0.72,-0.03l0,0l0,0q-0.4,-0.01 -0.86,-0.04l0,0l0,0q-0.45,-0.02 -0.89,-0.03l0,0l0,0q-0.33,0.63 -0.63,1.25l0,0l0,0q-0.29,0.63 -0.5,1.26l0,0l0,0q-0.24,0.67 -0.38,1.34l0,0l0,0q-0.15,0.67 -0.19,1.26zm5.4,-8.41l0,0l0,0q0.06,-0.2 0.13,-0.54l0,0l0,0q0.08,-0.35 0.15,-0.72l0,0l0,0q-0.35,0.12 -0.78,0.46l0,0l0,0q-0.42,0.33 -0.88,0.83l0,0l0,0q-0.45,0.5 -0.92,1.12l0,0l0,0q-0.47,0.62 -0.91,1.32l0,0l0,0q1.18,-0.09 2.68,-0.12l0,0l0,0q0.11,-0.59 0.24,-1.17l0,0l0,0q0.14,-0.58 0.29,-1.18zm18.98,-2.09l0,0l0,0q0.05,0.24 0.07,0.33l0,0l0,0q0.02,0.09 0.02,0.24l0,0l0,0q0,0.47 -0.2,0.87l0,0l0,0q-0.21,0.39 -0.56,0.56l0,0l0,0q-0.28,-0.38 -0.68,-0.65l0,0l0,0q-0.41,-0.27 -0.89,-0.45l0,0l0,0q-0.49,-0.17 -1,-0.26l0,0l0,0q-0.52,-0.08 -1.01,-0.08l0,0l0,0q-0.49,0 -0.92,0.08l0,0l0,0q-0.43,0.07 -0.75,0.21l0,0l0,0q-0.33,0.13 -0.52,0.33l0,0l0,0q-0.19,0.19 -0.19,0.44l0,0l0,0q0.04,0.31 0.38,0.63l0,0l0,0q0.33,0.31 0.82,0.61l0,0l0,0q0.49,0.3 1.09,0.6l0,0l0,0q0.59,0.29 1.17,0.56l0,0l0,0q0.71,0.33 1.23,0.62l0,0l0,0q0.52,0.29 0.85,0.63l0,0l0,0q0.34,0.34 0.51,0.78l0,0l0,0q0.16,0.43 0.16,1.05l0,0l0,0q0,0.71 -0.23,1.34l0,0l0,0q-0.24,0.62 -0.7,1.08l0,0l0,0q-0.45,0.46 -1.1,0.72l0,0l0,0q-0.64,0.26 -1.44,0.26l0,0l0,0q-0.78,0 -1.69,-0.24l0,0l0,0q-0.91,-0.24 -1.7,-0.65l0,0l0,0q-0.79,-0.41 -1.32,-0.95l0,0l0,0q-0.52,-0.54 -0.52,-1.14l0,0l0,0q0,-0.28 0.16,-0.72l0,0l0,0q0.16,-0.43 0.58,-0.91l0,0l0,0q0.04,0.42 0.45,1l0,0l0,0q0.42,0.57 1.24,1.06l0,0l0,0q0.77,0.45 1.59,0.65l0,0l0,0q0.82,0.21 1.53,0.21l0,0l0,0q0.79,0 1.28,-0.2l0,0l0,0q0.49,-0.2 0.77,-0.47l0,0l0,0q0.28,-0.27 0.39,-0.55l0,0l0,0q0.11,-0.28 0.13,-0.45l0,0l0,0q-0.02,-0.28 -0.26,-0.54l0,0l0,0q-0.25,-0.26 -0.66,-0.5l0,0l0,0q-0.41,-0.25 -0.96,-0.5l0,0l0,0q-0.55,-0.25 -1.13,-0.5l0,0l0,0q-0.89,-0.4 -1.52,-0.74l0,0l0,0q-0.64,-0.34 -1.05,-0.7l0,0l0,0q-0.42,-0.36 -0.6,-0.75l0,0l0,0q-0.19,-0.39 -0.19,-0.89l0,0l0,0q0,-0.79 0.47,-1.49l0,0l0,0q0.48,-0.7 1.37,-1.06l0,0l0,0q0.45,-0.2 0.96,-0.28l0,0l0,0q0.51,-0.09 1,-0.09l0,0l0,0q0.93,0 1.81,0.26l0,0l0,0q0.88,0.25 1.76,0.64zm9.99,0.95l0,0l0,0q-0.56,0 -0.86,-0.31l0,0l0,0q-0.31,-0.32 -0.31,-0.77l0,0l0,0q0,-0.11 0.04,-0.26l0,0l0,0q0.03,-0.16 0.09,-0.27l0,0l0,0q0.18,0.09 0.54,0.12l0,0l0,0q0.36,0.04 0.83,0.04l0,0l0,0q0.72,0 1.62,-0.07l0,0l0,0q0.9,-0.06 1.73,-0.13l0,0l0,0q0.82,-0.07 1.45,-0.13l0,0l0,0q0.63,-0.07 0.82,-0.07l0,0l0,0q0.51,0 0.75,0.39l0,0l0,0q0.23,0.38 0.34,1.03l0,0l0,0q-0.37,-0.03 -0.72,-0.05l0,0l0,0q-0.36,-0.02 -0.61,-0.02l0,0l0,0q-0.45,0 -0.9,0.03l0,0l0,0q-0.46,0.02 -0.92,0.08l0,0l0,0q-0.2,0.41 -0.44,0.96l0,0l0,0q-0.23,0.55 -0.46,1.15l0,0l0,0q-0.24,0.61 -0.45,1.2l0,0l0,0q-0.21,0.6 -0.36,1.07l0,0l0,0q-0.31,0.93 -0.54,1.71l0,0l0,0q-0.23,0.78 -0.4,1.46l0,0l0,0q-0.18,0.68 -0.31,1.3l0,0l0,0q-0.12,0.61 -0.22,1.2l0,0l0,0q-0.94,-0.14 -1.57,-1.17l0,0l0,0q0.11,-0.44 0.28,-0.95l0,0l0,0q0.16,-0.51 0.37,-1.16l0,0l0,0q0.22,-0.65 0.51,-1.48l0,0l0,0q0.3,-0.82 0.68,-1.87l0,0l0,0q0.14,-0.4 0.29,-0.82l0,0l0,0q0.15,-0.43 0.3,-0.85l0,0l0,0q0.15,-0.42 0.27,-0.81l0,0l0,0q0.12,-0.39 0.2,-0.72l0,0l0,0q-0.59,0.07 -1.11,0.12l0,0l0,0q-0.53,0.05 -0.93,0.05zm18.24,2.52l0,0l0,0q0.46,0 0.72,0.25l0,0l0,0q0.26,0.26 0.26,0.7l0,0l0,0q0,0.12 -0.02,0.23l0,0l0,0q-0.02,0.12 -0.05,0.21l0,0l0,0q-0.18,-0.03 -0.41,-0.05l0,0l0,0q-0.22,-0.02 -0.53,-0.02l0,0l0,0q-0.6,0 -1.22,0.1l0,0l0,0q-0.61,0.11 -1.17,0.18l0,0l0,0q-0.33,0.74 -0.59,1.43l0,0l0,0q-0.27,0.7 -0.46,1.27l0,0l0,0q-0.19,0.57 -0.29,0.99l0,0l0,0q-0.11,0.42 -0.12,0.63l0,0l0,0q1.13,-0.23 2.29,-0.4l0,0l0,0q1.15,-0.17 2.43,-0.25l0,0l0,0q0.15,0.23 0.26,0.51l0,0l0,0q0.1,0.28 0.1,0.61l0,0l0,0q0,0.08 0,0.18l0,0l0,0q0,0.1 -0.03,0.19l0,0l0,0q-0.39,-0.01 -0.82,-0.02l0,0l0,0q-0.44,0 -1.14,0l0,0l0,0q-0.46,0 -0.87,0.02l0,0l0,0q-0.41,0.02 -0.83,0.06l0,0l0,0q-0.42,0.04 -0.89,0.11l0,0l0,0q-0.47,0.07 -1.06,0.17l0,0l0,0q-0.64,-0.25 -1.25,-1.23l0,0l0,0q0.24,-0.51 0.67,-1.54l0,0l0,0q0.43,-1.02 1.08,-2.75l0,0l0,0q-0.63,-0.19 -0.82,-0.7l0,0l0,0q0.07,-0.07 0.4,-0.17l0,0l0,0q0.34,-0.11 0.83,-0.22l0,0l0,0q0.21,-0.54 0.36,-0.95l0,0l0,0q0.14,-0.41 0.26,-0.76l0,0l0,0q0.11,-0.36 0.2,-0.7l0,0l0,0q0.09,-0.35 0.17,-0.75l0,0l0,0q-0.49,-0.03 -0.77,-0.27l0,0l0,0q-0.28,-0.25 -0.28,-0.64l0,0l0,0q0,-0.11 0.04,-0.27l0,0l0,0q0.03,-0.15 0.08,-0.26l0,0l0,0q0.28,0.04 0.54,0.05l0,0l0,0q0.25,0.02 0.67,0.02l0,0l0,0q0.89,0 1.66,-0.05l0,0l0,0q0.77,-0.05 1.39,-0.11l0,0l0,0q0.62,-0.05 1.07,-0.1l0,0l0,0q0.45,-0.05 0.69,-0.05l0,0l0,0q0.32,0 0.57,0.33l0,0l0,0q0.25,0.34 0.38,0.96l0,0l0,0q-0.44,-0.05 -0.71,-0.06l0,0l0,0q-0.27,-0.01 -0.48,-0.01l0,0l0,0q-0.77,0 -1.41,0.07l0,0l0,0q-0.64,0.08 -1.22,0.16l0,0l0,0q-0.09,0.13 -0.19,0.33l0,0l0,0q-0.11,0.19 -0.28,0.54l0,0l0,0q-0.16,0.35 -0.41,0.88l0,0l0,0q-0.24,0.54 -0.59,1.33l0,0l0,0q0.53,-0.08 1,-0.13l0,0l0,0q0.47,-0.05 0.79,-0.05zm19.26,-1.75l0,0l0,0q0,0.67 -0.3,1.27l0,0l0,0q-0.3,0.59 -0.83,1.06l0,0l0,0q-0.53,0.47 -1.25,0.79l0,0l0,0q-0.71,0.33 -1.55,0.44l0,0l0,0q0.21,0.63 0.51,1.29l0,0l0,0q0.3,0.67 0.65,1.28l0,0l0,0q0.35,0.62 0.73,1.14l0,0l0,0q0.38,0.52 0.74,0.85l0,0l0,0q-0.07,0.14 -0.2,0.28l0,0l0,0q-0.14,0.14 -0.31,0.26l0,0l0,0q-0.18,0.12 -0.36,0.2l0,0l0,0q-0.19,0.07 -0.36,0.07l0,0l0,0q-0.31,0 -0.59,-0.29l0,0l0,0q-0.28,-0.29 -0.57,-0.93l0,0l0,0q-0.28,-0.64 -0.6,-1.65l0,0l0,0q-0.31,-1.02 -0.69,-2.45l0,0l0,0q-0.16,0 -0.31,0l0,0l0,0q-0.15,0 -0.24,-0.02l0,0l0,0q-0.1,-0.06 -0.21,-0.2l0,0l0,0q-0.38,0.81 -0.67,1.53l0,0l0,0q-0.29,0.71 -0.52,1.38l0,0l0,0q-0.24,0.66 -0.41,1.28l0,0l0,0q-0.18,0.63 -0.3,1.27l0,0l0,0q-0.48,-0.11 -0.83,-0.41l0,0l0,0q-0.35,-0.29 -0.66,-0.82l0,0l0,0q0.06,-0.13 0.12,-0.25l0,0l0,0q0.07,-0.12 0.16,-0.33l0,0l0,0q0.1,-0.22 0.25,-0.56l0,0l0,0q0.15,-0.33 0.39,-0.89l0,0l0,0q0.25,-0.56 0.59,-1.37l0,0l0,0q0.34,-0.82 0.83,-1.98l0,0l0,0q0.23,-0.52 0.39,-0.91l0,0l0,0q0.16,-0.39 0.28,-0.75l0,0l0,0q0.13,-0.35 0.24,-0.71l0,0l0,0q0.1,-0.36 0.21,-0.82l0,0l0,0q-0.64,0.22 -1.19,0.5l0,0l0,0q-0.56,0.27 -0.92,0.58l0,0l0,0q-0.13,-0.09 -0.26,-0.25l0,0l0,0q-0.13,-0.17 -0.25,-0.38l0,0l0,0q-0.11,-0.2 -0.19,-0.41l0,0l0,0q-0.09,-0.21 -0.1,-0.38l0,0l0,0q0.42,-0.28 1.03,-0.51l0,0l0,0q0.61,-0.24 1.29,-0.42l0,0l0,0q0.69,-0.17 1.4,-0.27l0,0l0,0q0.72,-0.1 1.33,-0.1l0,0l0,0q1.68,0 2.61,0.69l0,0l0,0q0.92,0.7 0.92,1.9zm-3.58,-1.44l0.17,0.27l0,0q-0.1,0.12 -0.31,0.5l0,0l0,0q-0.21,0.38 -0.48,0.9l0,0l0,0q-0.28,0.53 -0.58,1.14l0,0l0,0q-0.3,0.62 -0.58,1.22l0,0l0,0q1.05,0 1.93,-0.19l0,0l0,0q0.88,-0.2 1.53,-0.56l0,0l0,0q0.64,-0.35 1,-0.84l0,0l0,0q0.36,-0.48 0.36,-1.07l0,0l0,0q0,-0.7 -0.51,-1.07l0,0l0,0q-0.5,-0.37 -1.55,-0.37l0,0l0,0q-0.24,0 -0.48,0.02l0,0l0,0q-0.24,0.02 -0.5,0.05l0,0z"/>
  </g>
 </g>
</svg>